<?xml version="1.0" encoding="utf-8"?>
<!-- Generator: Adobe Illustrator 27.4.1, SVG Export Plug-In . SVG Version: 6.00 Build 0)  -->
<svg version="1.1" id="Camada_1" xmlns="http://www.w3.org/2000/svg" xmlns:xlink="http://www.w3.org/1999/xlink" x="0px" y="0px"
	 viewBox="0 0 512 889.9" style="enable-background:new 0 0 512 889.9;" xml:space="preserve">
<style type="text/css">
	.st0{fill:#FDE4BF;}
	.st1{fill:#FFF2E2;}
</style>
<g>
	<path class="st0" d="M461.86,889.9H52.57c-27.69,0-50.14-22.45-50.14-50.14V50.14C2.44,22.45,24.89,0,52.57,0h409.29
		C489.55,0,512,22.45,512,50.14v789.63C512,867.46,489.55,889.9,461.86,889.9z"/>
	<g>
		<g>
			<g>
				<path class="st1" d="M423.33,889.9h-45.54c-0.44-1.1-0.93-2.19-1.41-3.32c-2.24-5.1-9.46-16.8-32.23-37.77
					c-17.8-16.38-39.4-33.21-58.47-48.03c-24.84-19.36-48.3-37.62-67.66-56.78c-4.8-4.78-9.34-9.83-13.58-15.14
					c-0.41,5.97-0.76,12.53-1.02,19.7c-2.07,53.03-17.04,94.79-44.47,124.12c-6.49,6.95-13.14,12.61-19.65,17.21H70.34
					c3.56-7.44,6.61-14.87,8.83-22.38c0.34,0,0.71,0.02,1.07,0.02c1.49,0,3-0.1,4.41-0.27c5.49-0.68,24.8-4.36,43.01-23.84
					c20.21-21.6,31.28-54.08,32.94-96.52c2.88-73.87,12.26-92.82,43.03-119.52c0.95-0.83,1.88-1.63,2.8-2.41
					c3.75,27.87,14.48,61.61,41.74,88.6c17.51,17.36,40.01,34.86,63.83,53.39c39.62,30.87,88.92,69.24,103.55,102.3
					C418.77,876.57,421.33,883.42,423.33,889.9z"/>
			</g>
			<g>
				<g>
					<path class="st1" d="M459.34,0H52.66C23.58,0,0,23.58,0,52.66v784.58c0,20.26,11.43,37.84,28.21,46.62
						c10.19-18.65,16.68-34.33,13.82-47.98c-7.83-37.47-25.72-42.76-25.92-42.81c-1.8-0.49-3.02-2.24-2.78-4.12
						c0.22-1.85,1.76-3.29,3.63-3.34c0.51,0,52.18-0.85,65.88,40.86c3.54-1.24,9.65-4.19,15.87-11.02
						c9.02-9.9,20.11-30.11,21.65-70.12c3.17-81.36,14.87-111.86,56.88-148.33c41.11-35.69,65.8-40.16,66.83-40.33
						c1.27-0.2,2.54,0.24,3.39,1.15c0.88,0.93,1.22,2.24,0.93,3.46c-0.17,0.78-17.72,78.29,28.11,123.71
						c15.8,15.68,37.38,32.45,60.22,50.23c45.42,35.38,96.91,75.48,115.64,117.78c5.78,13.09,9.85,25.26,12.58,36.62
						c26.45-2.8,47.06-25.19,47.06-52.37V52.66C512,23.58,488.42,0,459.34,0z M71.31,752.88c-2,1.97-5.29,3.95-10.36,3.95
						c-1.83,0-3.88-0.24-6.19-0.85c-5.05-1.32-8.56-4.07-10.48-8.22c-4.97-10.75,2.95-27.16,8.19-38.03
						c0.39-0.76,0.73-1.49,1.05-2.17c4.46-9.36,4.24-13.92,4.19-14.51c-0.49-1.8,0.44-3.61,2.17-4.36c1.76-0.76,3.85,0.05,4.83,1.68
						c0.2,0.37,5.27,9.07,9.83,27.94C76.82,727.8,79.46,744.89,71.31,752.88z M330.56,683.37c-1.32,0.44-2.63,0.66-3.97,0.66
						c-5.85,0-11.9-4.17-16.8-11.78c-7.34-11.41-3.63-30.96,11-58.15c0.39-0.76,0.71-1.29,0.85-1.61c0.46-1.32,1.61-2.32,3.05-2.51
						c1.85-0.27,3.63,0.88,4.17,2.68c0.41,1.39,9.97,34.01,11.48,50.61C341.24,673.13,337.38,681.01,330.56,683.37z M500.61,844.36
						c-1.63,13.85-9.53,18.97-15.8,19.16h-0.37c-7.07,0-15.12-5.9-17.48-19.24c-3.97-22.43,14.12-47.15,14.87-48.18
						c0.76-1.02,1.98-1.58,3.24-1.54c1.24,0.05,2.41,0.76,3.05,1.83C488.76,797.43,503.27,821.83,500.61,844.36z"/>
				</g>
			</g>
		</g>
	</g>
</g>
<g>
</g>
<g>
</g>
<g>
</g>
<g>
</g>
<g>
</g>
<g>
</g>
</svg>
