<?xml version="1.0" encoding="utf-8"?>
<!-- Generator: Adobe Illustrator 27.4.1, SVG Export Plug-In . SVG Version: 6.00 Build 0)  -->
<svg version="1.1" id="Layer_1" xmlns="http://www.w3.org/2000/svg" xmlns:xlink="http://www.w3.org/1999/xlink" x="0px" y="0px"
	 viewBox="0 0 4000 4000" style="enable-background:new 0 0 4000 4000;" xml:space="preserve">
<style type="text/css">
	.st0{fill:#FFBE1D;}
	.st1{fill:#DD3A0E;}
	.st2{fill:#FF7F1F;}
	.st3{fill:#650000;}
	.st4{fill:#FDB016;}
	.st5{fill:#99031E;}
	.st6{fill:#FB1A03;}
	.st7{fill:#F9A331;}
	.st8{opacity:0.25;}
	.st9{fill:#6C164E;}
	.st10{fill:#76C91B;}
	.st11{opacity:0.4;}
	.st12{fill:#FFFFFF;}
	.st13{fill:none;}
</style>
<g>
	<g>
		<g>
			<g>
				<g>
					<path class="st0" d="M3471.27,1802.78c32.02-0.93,56.59-34.46,62.61-85.43c11.85-100.47-41.35-212.47-62.09-251.57
						c-25.08,38.31-91.16,150.87-73.74,249.18C3409.02,1776.78,3442.78,1803.53,3471.27,1802.78z"/>
				</g>
			</g>
		</g>
		<g>
			<g>
				<g>
					<path class="st0" d="M2538.67,726.91c25.66-8.83,40.3-43.34,36.43-85.88c-6.88-75.71-44.43-214.77-60.37-271.43
						c-95.73,181.4-86.64,265.5-61.73,304.19C2480.28,716.12,2512.33,736.01,2538.67,726.91z"/>
				</g>
			</g>
		</g>
		<g>
			<g>
				<g>
					<path class="st0" d="M336.87,2018.74c-29.11,43.69-84.22,138.69-85.17,232.92c-0.7,69.6,39.32,114.62,78.42,117.94
						c27.14,2.27,46.32-16.41,51.7-49.99c8.28-51.64-3.62-97.01-17.41-149.54C353.06,2126.83,340.41,2078.67,336.87,2018.74z"/>
				</g>
			</g>
		</g>
		<g>
			<g>
				<g>
					<path class="st0" d="M908.04,1160.57c30.01,7.82,52.68,4.43,67.44-10.07c26.71-26.24,30.57-91.88,10.31-175.58
						c-13.89-57.41-28.58-98.4-39.3-124.23c-3.84,16.63-11.07,38.57-24.32,66.39c-1.97,4.13-4.1,8.55-6.37,13.24
						c-26.92,55.74-71.98,149.02-48.78,199.21C874.21,1145.1,887.63,1155.25,908.04,1160.57z"/>
				</g>
			</g>
		</g>
		<g>
			<g>
				<g>
					<g>
						<g>
							<path class="st1" d="M2847.11,2518.08c4.23-24.52,8.46-47.1,12.93-70.99l0.21-1.11c30.84-164.58,51.22-273.36-36.69-472.09
								c-13.52-30.58-56.55-100.59-192.81-225.98c-106.53-98.04-235.73-198.63-349.72-287.37
								c-148.64-115.72-289.04-225.02-404.71-339.61c-28.83-28.56-55.94-58.77-81.29-90.53c-2.47,35.75-4.52,74.92-6.19,117.78
								c-12.34,317.29-101.84,567.14-266,742.59c-99.61,106.46-205.39,162.39-288.63,191.77
								c-37.88,82.55-83.36,160.91-127.87,237.61c-96.98,167.11-197.24,339.87-235.83,557.16c-8.39,47.24-3.72,89.52,15.14,137.1
								c18.18,45.87,48.45,92.79,89.99,139.46c63.9,71.81,135.92,122.4,164.31,141.06c301.03,136.19,630.81,208.11,954.82,208.11
								c273.94,0,540.7-52.46,771.44-151.72c128.12-55.11,207-107.5,255.55-150.78C2944.7,3097.18,2786.19,2871.44,2847.11,2518.08z
								"/>
						</g>
					</g>
				</g>
				<g>
					<g>
						<g>
							<path class="st2" d="M3392.09,3017.16c-36.41,0-71.98-6.88-105.7-20.45c-118.37-47.66-229.56-186.97-186.78-435.1
								c3.91-22.64,7.97-44.37,12.28-67.37l0.19-1c33.88-180.82,65.87-351.57-54.19-623c-87.43-197.68-382.42-427.34-619.44-611.88
								c-142.46-110.9-276.98-215.63-381.78-319.46c-163-161.47-227.15-363.31-249.69-529.95c-5.49,4.65-11.07,9.43-16.7,14.32
								c-184.11,159.84-240.24,273.05-257.42,714.94c-9.88,254-76.18,448.29-197.07,577.49
								c-109.01,116.51-224.48,138.57-257.27,142.56c-8.52,1.05-17.47,1.6-26.34,1.6c-2.18,0-4.36-0.03-6.52-0.1
								c-32.59,110.73-95.68,219.43-160.9,331.8c-103.12,177.68-219.97,379.03-266.48,640.94c-16.72,94.14-7.16,184.52,29.22,276.3
								c29.25,73.8,75.26,146.26,136.77,215.38c97.97,110.1,206.42,180,233.17,196.43c338.57,156.13,710.89,238.63,1077.38,238.63
								c308.46,0,610.23-59.67,872.68-172.57c231.54-99.6,383.23-218.54,450.84-353.51c32.98-65.82,48.8-137.27,48.67-225.96
								C3442.64,3013.75,3417.5,3017.16,3392.09,3017.16z M2094.78,3503.03c-324.02,0-653.8-71.93-954.82-208.11
								c-28.4-18.66-100.41-69.24-164.31-141.06c-41.53-46.68-71.81-93.6-89.99-139.46c-18.86-47.58-23.52-89.86-15.14-137.1
								c38.59-217.29,138.85-390.05,235.83-557.16c44.52-76.71,89.99-155.06,127.87-237.61c83.25-29.38,189.03-85.31,288.63-191.77
								c164.17-175.45,253.66-425.29,266-742.59c1.67-42.86,3.72-82.02,6.19-117.78c25.35,31.76,52.46,61.97,81.29,90.53
								c115.67,114.59,256.07,223.89,404.71,339.61c113.99,88.74,243.18,189.33,349.72,287.37
								c136.26,125.4,179.29,195.4,192.81,225.98c87.9,198.73,67.52,307.51,36.69,472.09l-0.21,1.11
								c-4.48,23.9-8.7,46.47-12.93,70.99c-60.92,353.36,97.58,579.1,274.66,682.45c-48.55,43.29-127.43,95.67-255.55,150.78
								C2635.48,3450.57,2368.72,3503.03,2094.78,3503.03z"/>
						</g>
					</g>
				</g>
			</g>
			<g>
				<g>
					<g>
						<path class="st0" d="M3661.68,2837.8c-31.03-221.22-140.22-291.66-186.33-311.85c18.21,46.82,52.09,157.45,1.5,232.23
							c-22.16,32.76-53.86,51.24-84.76,51.24c-9.57,0-19.05-1.77-28.16-5.43c-43.08-17.35-81.37-80.86-59.6-207.07
							c3.71-21.47,7.71-42.83,11.94-65.44c36.44-194.47,77.74-414.89-68.4-745.27c-108.57-245.47-413.13-482.58-681.84-691.78
							c-137.39-106.96-267.17-208-363.17-303.1c-150.53-149.12-190.61-350.97-197.73-494.05c-6.05-121.38,10.02-222.28,17.31-260.53
							c-42.89,12.45-174.42,61.27-368.37,229.66c-242.72,210.71-310.33,388.3-328.82,863.74
							c-9.82,252.44-82.19,380.58-141.18,443.62c-65.16,69.64-128.01,77.95-130.65,78.27c-0.43,0.05-0.85,0.08-1.27,0.08
							c-4.68,0-8.82-3.16-10.02-7.77c-48.77-187.28-234.29-229.44-321.65-238.86c41.72,31.02,102.76,101.59,135.47,258.24
							c25.12,120.3-52.56,254.14-150.9,423.58c-106.21,183.01-238.4,410.78-291.33,708.87c-51.89,292.22,88.46,523.53,215.33,666.1
							c134.88,151.58,283.18,237.68,291.2,242.27c374.36,174.47,779.65,262.44,1174.54,262.44c333.95,0,660.42-62.86,954.77-189.48
							C3667.79,3511.57,3705.92,3153.24,3661.68,2837.8z M3418.3,3233.17c-67.61,134.97-219.3,253.91-450.84,353.51
							c-262.45,112.9-564.22,172.57-872.68,172.57c-366.48,0-738.8-82.5-1077.38-238.63c-26.75-16.43-135.2-86.34-233.17-196.43
							c-61.5-69.12-107.52-141.58-136.77-215.38c-36.38-91.78-45.93-182.16-29.22-276.3c46.51-261.91,163.36-463.25,266.48-640.94
							c65.21-112.37,128.3-221.07,160.9-331.8c2.17,0.06,4.34,0.1,6.52,0.1c8.87,0,17.83-0.55,26.34-1.6
							c32.79-3.99,148.26-26.05,257.27-142.56c120.89-129.2,187.19-323.49,197.07-577.49c17.19-441.88,73.31-555.1,257.42-714.94
							c5.64-4.89,11.21-9.67,16.7-14.32c22.55,166.64,86.7,368.48,249.69,529.95c104.8,103.83,239.33,208.56,381.78,319.46
							c237.03,184.53,532.01,414.19,619.44,611.87c120.06,271.43,88.07,442.18,54.19,623l-0.19,1c-4.31,23-8.38,44.73-12.28,67.37
							c-42.78,248.13,68.41,387.44,186.78,435.1c33.73,13.57,69.29,20.45,105.7,20.45c25.41,0,50.55-3.41,74.89-9.96
							C3467.1,3095.9,3451.28,3167.34,3418.3,3233.17z"/>
					</g>
				</g>
			</g>
		</g>
		<g>
			<g>
				<g>
					<g>
						<path class="st3" d="M2094.8,4000c-399.91,0-810.03-89.01-1188.92-265.66c-0.53-0.25-1.04-0.51-1.55-0.79
							c-6.4-3.61-158.38-90.13-300-249.29c-188.91-212.3-266.09-452.24-223.18-693.87c53.96-303.85,187.77-534.42,295.29-719.68
							c94.79-163.33,169.66-292.33,147.13-400.23c-46.79-224.12-153.94-255.8-155.02-256.1c-10.85-2.96-18.04-13.47-16.69-24.63
							c1.35-11.17,10.53-19.7,21.78-19.99c3.08-0.09,312.03-5.06,394.07,244.46c21.1-7.41,57.72-25.14,94.96-66.02
							c53.96-59.22,120.23-180.04,129.53-419.34c18.93-486.79,88.88-669.25,340.18-887.42C1878.32,27.93,2026.05,1.33,2032.21,0.3
							c7.54-1.23,15.09,1.34,20.28,6.87c5.19,5.54,7.25,13.31,5.52,20.69c-1.09,4.65-106.12,468.3,168.12,739.97
							c94.6,93.72,223.62,194.17,360.22,300.51c271.78,211.59,579.83,451.41,691.76,704.49
							c150.29,339.77,106.13,575.41,70.65,764.75c-4.21,22.48-8.19,43.71-11.85,64.95c-18.44,106.94,9.69,158.83,39.38,170.79
							c24.05,9.7,52.79-3.53,73.18-33.66c53.56-79.18-12.61-220.03-13.28-221.44c-3.7-7.75-2.71-16.93,2.57-23.71
							c5.27-6.77,13.91-10,22.33-8.32c7.76,1.55,190.5,41.51,233.34,347c19.1,136.22,30.02,315.58-55.83,494.99
							c-94.04,196.52-282.45,353.43-575.98,479.69C2764.23,3936.24,2433.17,4000,2094.8,4000z M925.91,3693.64
							c687.71,320.34,1479.7,347.49,2118.78,72.58c610.64-262.68,648.41-615.87,604.82-926.72
							c-25.53-181.96-102.54-258.11-152.57-288.98c17.84,56.74,34.93,148.24-9.92,214.54c-32.34,47.82-83.66,68.04-127.68,50.32
							c-23.07-9.28-96.08-52.64-67.14-220.56c3.72-21.56,7.73-42.95,11.97-65.59c36.12-192.72,77.05-411.15-67.54-738.05
							c-107.32-242.64-410.58-478.74-678.15-687.04c-137.69-107.2-267.75-208.45-364.27-304.08
							c-121.37-120.23-190.99-293.88-201.36-502.17c-5.28-106.27,5.81-195.42,13.81-243.14c-54.82,19.33-175.55,74.23-344.53,220.93
							c-239.53,207.95-306.27,383.73-324.6,854.93c-19.29,496.11-271.88,532.32-282.63,533.62c-11.33,1.31-21.81-5.82-24.67-16.8
							c-41.21-158.27-181.01-208.88-272.62-224.97c39.34,40.98,84.12,113.08,110.36,238.74c26.08,124.9-52.64,260.54-152.31,432.27
							c-105.72,182.17-237.31,408.89-289.85,704.84c-40.9,230.33,30.27,450.64,211.54,654.81
							C769.19,3601.63,914.61,3687.11,925.91,3693.64z"/>
					</g>
				</g>
			</g>
			<g>
				<g>
					<g>
						<path class="st3" d="M334.74,2402.85c-2.44,0-4.91-0.11-7.42-0.32c-54.12-4.59-109.59-62.41-108.69-151.22
							c1.41-138.83,105.44-272.24,109.87-277.85c5.97-7.57,16.09-10.55,25.2-7.38c9.12,3.15,15.25,11.72,15.28,21.37
							c0.2,70.61,14.66,125.66,27.41,174.22c14.13,53.81,27.47,104.64,18.08,163.16C406.75,2372.97,375.83,2402.85,334.74,2402.85z
							 M327.96,2056.13c-28.38,48.37-63.23,122.47-63.98,195.65c-0.69,68.83,38.87,103.17,67.18,105.57
							c20.38,1.73,34.14-12.37,38.53-39.7c7.87-49.08-3.73-93.28-17.17-144.46C343.42,2138.5,333.48,2100.68,327.96,2056.13z"/>
					</g>
				</g>
			</g>
			<g>
				<g>
					<g>
						<path class="st3" d="M3470.04,1835.86c-42.24,0-90.38-35.28-104.53-115.12c-23.78-134.06,84.37-281.96,88.98-288.19
							c4.51-6.08,11.78-9.46,19.3-9.15c7.56,0.36,14.44,4.47,18.34,10.95c3.71,6.14,90.5,152.06,74.58,286.89
							c-9.78,82.85-57.01,113.51-94.49,114.6C3471.5,1835.85,3470.77,1835.86,3470.04,1835.86z M3470.66,1490.71
							c-28.4,47.33-75,140.42-60.51,222.11c9.5,53.58,37.49,77.68,59.86,77.68c0.3,0,0.6,0,0.89-0.01
							c25.58-0.74,45.51-30.01,50.77-74.58C3531.59,1631.94,3494.04,1538.9,3470.66,1490.71z"/>
					</g>
				</g>
			</g>
			<g>
				<g>
					<g>
						<path class="st3" d="M936.7,1197.69c-10.9,0-23.19-1.52-37-5.13c-30.16-7.86-51.25-24.4-62.69-49.15
							c-29.76-64.38,17.65-162.52,49.02-227.47c2.23-4.63,4.35-9,6.28-13.07c26.68-56.02,25.34-83.23,25.01-86.75
							c-2.98-10.85,2.67-21.54,13.05-26.04c10.5-4.55,22.94,0.21,28.74,10.06c1.27,2.16,31.52,54.24,58.8,167.02
							c13.73,56.72,29.48,159.03-19.27,206.93C986.69,1185.83,967.09,1197.69,936.7,1197.69z M947.73,888.44
							c-3.83,10.26-8.58,21.55-14.47,33.92c-1.98,4.14-4.12,8.6-6.4,13.3c-24.27,50.25-69.45,143.79-48.69,188.72
							c3.55,7.66,10.82,18.52,32.97,24.29c38.48,10.02,51.46-2.74,55.73-6.94c23.24-22.84,25.92-85.64,6.98-163.92
							C965.03,941.38,955.91,911.7,947.73,888.44z M917.44,816.5h0.07H917.44z"/>
					</g>
				</g>
			</g>
			<g>
				<g>
					<g>
						<path class="st3" d="M2525.68,762.17c-34.94,0-71.13-24.94-100.47-70.49c-43.92-68.18-21.78-185.22,65.78-347.85
							c2.41-4.46,4.19-7.73,5.13-9.63c2.72-7.81,9.6-13.75,18.18-14.99c11.17-1.63,21.81,5.23,24.99,16.03
							c2.43,8.26,59.71,203.43,68.74,302.79c5.35,58.89-17.65,106.05-58.6,120.14C2541.65,760.86,2533.7,762.17,2525.68,762.17z
							 M2511.29,403.25c-77.8,156.74-69.84,229.89-47.95,263.88c23.65,36.72,50.96,55.15,71.34,48.17
							c19.89-6.85,31.49-36.93,28.2-73.15C2557.09,578.59,2529.24,469.2,2511.29,403.25z M2494.86,341.63c0,0.01,0,0.02,0,0.03
							C2494.86,341.65,2494.86,341.64,2494.86,341.63z M2494.86,341.6c0,0,0,0.01,0,0.01
							C2494.86,341.61,2494.86,341.6,2494.86,341.6z M2494.86,341.58C2494.86,341.58,2494.86,341.58,2494.86,341.58L2494.86,341.58z
							"/>
					</g>
				</g>
			</g>
		</g>
	</g>
	<g>
		<g>
			<g>
				<g>
					<path class="st4" d="M2358.3,2689.49c-11.92-7.13-23.18-13.88-32.05-17.1c-3.77-1.38-5.68-0.55-7.53,1.2
						c-10.18,9.7-15.34,46.61-9.4,96.75c42.13-2.28,215.01-12.73,336.65-36.6c125.71-24.68,269.6-137.45,292.76-206.62
						c-62.67,27.43-154.85,50.82-289.62,55.73c-63.51,10.52-120.4,69.68-157.71,113.32
						C2450.13,2744.47,2397.06,2712.68,2358.3,2689.49z"/>
				</g>
			</g>
		</g>
		<g>
			<g>
				<g>
					<path class="st4" d="M1963.56,2470.62c-26.64,15.18-158.97,83.27-423.63,105.86c-53.98,4.61-105.79,6.72-154.69,6.72
						c-35.35,0-69.16-1.12-101.28-3.16c16.87,16.3,49.67,40.5,105.88,55.6c15.13,4.06,28.86,7.44,41.3,10.5
						c66.38,16.34,102.94,25.35,117.99,86.39c3.58,14.54,6.3,30.49,8.93,45.92c6.27,36.8,12.75,74.86,29.65,84.65
						c5.8,3.35,13.25,3.27,22.8-0.24c23.68-8.7,29.63-40.16,32.24-72.8c0.01-0.1-0.01-0.19,0-0.28c0.01-0.05,0.02-0.09,0.03-0.13
						c0.55-7,0.96-14.04,1.36-20.93c1.93-33.74,3.59-62.88,22.09-73.17c18.39-10.2,38.93-10.2,54.94,0.01
						c16.55,10.56,35.38,35.86,31.05,96.48c-0.22,3.05-0.53,6.32-0.93,9.77c0,0.01,0,0.02,0,0.03c0,0,0,0.01,0,0.01
						c-2.82,24.35-9.92,58.2-17.97,96.64c-22.26,106.2-55.9,266.7-7.78,309.47c26.63,23.66,51.64,18.27,67.93,9.58
						c38.74-20.67,74.06-85.45,63.21-164.81c-2.02-14.78-4.1-29.57-6.18-44.28c-10.45-74.1-20.46-145.41-21.46-207.65
						c0-0.03-0.01-0.06-0.01-0.1c0-0.02,0.01-0.04,0.01-0.06c-0.49-31.01,1.21-59.81,6.3-85.5
						c12.77-64.51,62.32-110.63,100.9-116.37c21.98-3.29,40.45,5.86,50.7,25.03c5.79,10.83,10.93,21.34,15.91,31.5
						c18.1,36.94,29.84,59.35,44.01,54.68c4.14-1.38,10.2-4.15,17.22-7.35c27.77-12.67,69.73-31.81,98.52-14.21
						c16.34,10,25.28,30.03,26.6,59.54c0.97,22.15,0.37,46.53-0.29,72.32c-2.06,81.87-4.34,174.03,49.43,194.02
						c21.45-2,43.39-4.3,65.7-6.95c1.07-0.97,2.18-1.89,3.15-2.98c21.29-23.76,21.37-76.52,0.2-144.76
						c-7.54-24.29-13.47-50.46-17.16-75.78c-0.18-0.68-0.3-1.39-0.33-2.13c0-0.06,0.01-0.12,0.01-0.18
						c-7.67-54.39-4.91-104.45,14.5-122.95c7.94-7.58,18.22-9.62,28.96-5.69c10.73,3.9,22.82,11.13,35.62,18.79
						c44.96,26.89,78.92,43.45,106.62,11.02c27.99-32.75,66.63-73.7,111.79-98.92c-10.39-0.06-20.93-0.18-31.77-0.45
						C2210.33,2574.86,1998.27,2486.2,1963.56,2470.62z"/>
				</g>
			</g>
		</g>
		<g>
			<g>
				<g>
					<path class="st5" d="M1873.73,3024.59c33.67,1.55,164.34,6.04,330.5-7.34c-40.05-38.75-37.99-122.11-36.1-197.51
						c0.07-2.93,0.14-5.78,0.21-8.67h-318.31c1.88,58.44,11.27,125.22,21.04,194.46
						C1871.96,3011.87,1872.84,3018.24,1873.73,3024.59z"/>
				</g>
			</g>
		</g>
		<g>
			<g>
				<g>
					<path class="st4" d="M2168.43,2748.87c-0.98-22.19-6.59-36.56-16.68-42.74c-19.35-11.84-55.28,4.54-79.05,15.38
						c-7.56,3.45-14.09,6.43-19.27,8.16c-31.98,10.73-49.27-24.49-69.24-65.25c-4.9-9.99-9.96-20.33-15.58-30.84
						c-6.12-11.45-15.96-16.25-29.32-14.28c-31.75,4.73-72.91,45.98-83.58,99.85c-4.24,21.41-5.97,45.36-5.99,71.15h319.03
						C2168.98,2775.75,2169,2761.8,2168.43,2748.87z"/>
				</g>
			</g>
		</g>
		<g>
			<g>
				<g>
					<path class="st6" d="M1468.5,2439.14c2.37,0.01,4.74,0.01,7.09,0.01c293.99,0,446.95-70.99,477.77-131.1
						c0.26-0.61,0.57-1.2,0.93-1.74c1.11-2.33,1.99-4.63,2.72-6.92c-55.5,1.85-98.58,24.47-140.58,46.54
						c-37.32,19.62-75.92,39.91-121.74,44.68c-80.72,8.38-128.47-32.2-170.62-68.02c-19.27-16.38-37.48-31.84-57.64-42.06
						c-45.61-23.09-102.16-7.65-167.65,10.24c-23.94,6.55-48.69,13.31-74.02,18.37c-73.95,14.82-112.07-55.51-142.71-111.98
						c-11.98-22.09-23.3-42.96-34.94-55.57c-0.49-0.53-1.04-0.98-1.56-1.47c-23.97,10.83-118.21,56.48-139.71,113.7
						c-6.36,16.93-5.61,32.97,2.31,49.03C953.99,2395.79,1126.8,2437.82,1468.5,2439.14z"/>
				</g>
			</g>
		</g>
		<g>
			<g>
				<g>
					<path class="st7" d="M1107.54,1975.33c2.41,0.66,244.7,66.29,589.69,96.66c317.73,27.97,790.03,30.86,1236.41-113.91
						c33.06-22.94,60.8-46.33,83.5-70.28c0.07-0.09,0.12-0.19,0.2-0.28c0.12-0.14,0.27-0.24,0.4-0.37
						c46.9-49.7,71.83-101.88,75.5-157.84c6.9-105.22-64.1-226.02-211.06-359.04c-218.68-197.94-545.63-304.76-903.41-304.76
						c-128.2,0-260.31,13.71-392.88,41.85c-476.17,101.09-768.61,445.9-753.08,629.62c15.24,180.36,271.59,237.66,274.18,238.21
						C1107.17,1975.23,1107.36,1975.28,1107.54,1975.33z"/>
				</g>
			</g>
		</g>
		<g>
			<g>
				<g>
					<path class="st4" d="M1426.18,2666.31c-12.57-3.1-26.43-6.51-41.72-10.62c-84.36-22.65-120.35-64.29-130.17-77.82
						c-90.75-7.65-165.92-22.97-219.49-42.09c17.21,49.22,101.2,189.95,502.25,243.02c-2.4-14.08-4.91-28.45-8.08-41.29
						C1516.92,2688.65,1492.21,2682.56,1426.18,2666.31z"/>
				</g>
			</g>
		</g>
		<g class="st8">
			<g>
				<g>
					<path class="st9" d="M2168.43,2693.47c-0.98-22.19-6.59-36.56-16.68-42.74c-19.35-11.84-55.28,4.54-79.05,15.38
						c-7.56,3.45-14.09,6.43-19.27,8.16c-31.98,10.73-49.27-24.49-69.24-65.25c-4.9-9.99-9.96-20.33-15.58-30.84
						c-6.12-11.45-15.96-16.25-29.32-14.28c-31.75,4.73-72.91,45.98-83.58,99.85c-4.24,21.41-5.97,45.36-5.99,71.15h319.03
						C2168.98,2720.35,2169,2706.4,2168.43,2693.47z"/>
				</g>
			</g>
		</g>
		<g class="st8">
			<g>
				<g>
					<path class="st9" d="M1426.18,2666.31c-12.57-3.1-64.23-30.26-79.52-34.36c-84.36-22.65-70.76-54.94-80.58-68.47
						c-90.75-7.65-156.18-22.67-209.75-41.79c17.21,49.22,79.67,148.65,480.72,201.72c-2.4-14.08-4.39-1.92-7.56-14.76
						C1517.44,2659.78,1492.21,2682.56,1426.18,2666.31z"/>
				</g>
			</g>
		</g>
		<g>
			<g>
				<g>
					<path class="st4" d="M1710.01,2713.07c-9.62-6.13-21.9-5.9-33.68,0.64c-8.5,4.72-10.13,33.26-11.44,56.19
						c-0.22,3.86-0.46,7.81-0.72,11.8l67.41,7.49C1734.07,2751.14,1726.24,2723.42,1710.01,2713.07z"/>
				</g>
			</g>
		</g>
		<g>
			<g>
				<g>
					<path class="st5" d="M2649.97,2754.14c-121.27,23.81-292.29,34.37-337.71,36.86c3.29,19.52,8.16,40.55,14.96,62.46
						c20.38,65.66,22.01,118.01,5.2,150.37c106.9-13.93,220.96-35.97,329.3-70.51c342.34-109.15,327.05-169.91,316.92-210.12
						c-0.62-2.48-1.24-4.92-1.78-7.31c-3.75-16.41-2.95-38.44-2.1-61.77c1.5-41.34,3.17-87.51-18.38-115.02
						C2924.11,2620.77,2774.35,2729.72,2649.97,2754.14z"/>
				</g>
			</g>
		</g>
		<g>
			<g>
				<g>
					<path class="st6" d="M2588.93,2468.19c-57.78,0-119.45-2.71-184.07-8.3c-277.06-24-392.54-68.74-431.51-88.44v80.8
						c36.53,16.25,244.63,102.02,582.78,110.3c199.81,4.92,320.25-26.8,392-62.48c0.11-0.05,0.22-0.12,0.33-0.16
						c37.51-18.69,61.68-38.46,76.9-54.6c0.91-0.96,1.67-1.76,2.3-2.39c2.75-8.43,2.48-44.28,0.56-83.93
						C2976.33,2428.04,2811.63,2468.19,2588.93,2468.19z"/>
				</g>
			</g>
		</g>
		<g>
			<g>
				<g>
					<path class="st6" d="M2895.5,2133.52c-21.63,9.06-35.22,38.98-50.54,72.87c-15.21,33.64-32.45,71.77-61.9,95.33
						c-46.63,37.3-119.57,12.8-183.94-8.79c-29.97-10.06-58.28-19.56-81.02-22.05c-38.07-4.2-68.45,18.44-106.89,47.08
						c-29.47,21.96-62.86,46.84-106.98,64.8c-20.33,8.27-38.07,11.73-54.4,11.73c-34.74,0-63.03-15.67-96.05-33.95
						c-34.89-19.32-74.45-41.22-135.42-55.01c-14.1-3.19-27.37-4.95-40.07-5.73c-1.1,4.5-2.74,9.1-4.95,13.78v34.16
						c21.03,12.26,127.05,64.91,433.31,91.45c372.05,32.25,595.21-35.27,616.31-115.17c22.87-86.59-122.97-186.31-124.44-187.31
						C2897.25,2135.86,2896.25,2134.75,2895.5,2133.52z"/>
				</g>
			</g>
		</g>
		<g>
			<g>
				<g>
					<path class="st10" d="M3025.52,1908.96c-22.7,22.89-49.69,45.22-81.32,67.07c-0.82,0.57-1.74,1.02-2.69,1.33
						c-308.56,100.31-629.31,130.52-903.63,130.53c-126,0-242.16-6.37-342.92-15.25c-341.36-30.08-582.9-94.57-592.61-97.2
						c-8.72-1.9-104.1-23.66-183.34-81.97c-25.18,21.04-114.27,101.81-77.79,163.06c23.43,39.37,72.66,35.92,120.24,32.59
						c40.56-2.86,78.86-5.52,100.95,18.39c13.4,14.52,25.32,36.49,37.94,59.75c28.81,53.1,61.37,113.33,120.37,101.52
						c24.62-4.92,49.01-11.59,72.61-18.04c66.74-18.24,129.78-35.46,182.52-8.74c22.36,11.32,41.47,27.56,61.7,44.75
						c40.89,34.74,83.1,70.68,155.02,63.19c41.85-4.35,77-22.84,114.22-42.4c47.62-25.04,96.61-50.69,162.77-49.06
						c0.23,0,0.46-0.04,0.7-0.03c0.08,0.01,0.16,0.03,0.24,0.04c16.37,0.47,33.75,2.54,52.47,6.78
						c63.86,14.44,106.58,38.09,140.9,57.1c47.09,26.06,78.18,43.27,132.56,21.14c41.65-16.95,73.92-40.99,102.39-62.21
						c40.43-30.13,75.27-56.11,121.58-51.08c24.96,2.74,54.3,12.58,85.36,23.01c59.34,19.92,126.58,42.47,164.35,12.27
						c25.55-20.44,41-54.62,55.95-87.68c20.31-44.92,39.49-87.36,82.64-87.95c17.45-0.22,37.19,2.64,58.1,5.69
						c68.73,10.03,118.71,13.16,135.92-37.93C3124.75,2012.13,3049.64,1932.38,3025.52,1908.96z"/>
				</g>
			</g>
		</g>
		<g>
			<g>
				<g>
					<path class="st7" d="M1085.15,2935.88c110.89,55.39,304.11,124.6,596.72,141.91c1.27-15.08,3.12-30.65,5.4-46.49
						c-496.56-19.75-742.81-257.89-745.26-260.32c-2.64-2.62-3.69-6.44-2.73-10.04c0.06-0.21,2.91-11,5.95-24.49
						c-24.46,7.47-54.16,20.66-60.98,35.55c-0.48,1.05-0.8,2.09-1.03,3.13c-0.04,0.14-0.05,0.29-0.1,0.43
						c-0.62,3.33,0.06,6.67,2.08,10.46C894.69,2803.72,951.78,2869.27,1085.15,2935.88z"/>
				</g>
			</g>
		</g>
		<g>
			<g>
				<g>
					<path class="st6" d="M977.51,2483.17c10.56,9.01,25.7,17.73,44.75,25.9c1.35,0.3,2.58,0.83,3.67,1.56
						c52.4,21.69,133.44,39.22,234.47,47.2c0.37,0.01,0.74,0.04,1.1,0.08c80.94,6.33,174.6,6.57,276.65-2.14
						c256.61-21.9,388.32-88.36,414.41-102.86v-110.16c-55.86,58.41-201.42,117.15-476.62,117.16c-2.52,0-4.99-0.01-7.53-0.01
						c-311.88-1.2-483.37-35.43-554.75-112.94C924.46,2393.46,944.28,2454.83,977.51,2483.17z"/>
				</g>
			</g>
		</g>
		<g>
			<g>
				<g>
					<path class="st5" d="M973.08,2697.39c-1.45,18.88-8.87,49.77-12.16,62.82c34.45,31.1,275.45,233.08,729.52,250.46
						c6.36-39.13,14.74-79.15,22.55-116.44c6.85-32.71,12.99-62,16.29-84.38l-66.83-7.43c-3.78,34.53-13.16,68.32-44.76,79.94
						c-15.48,5.69-29.07,5.26-40.38-1.28c-21.74-12.59-29.97-44.58-36.54-80.84c-468.71-60.4-523.85-237.26-530.24-274.02
						c-11.41-4.98-21.48-10.15-30.06-15.46c-18.86,16.44-51.28,52.22-40.29,79.16l5.63,13.69
						C962.04,2643.03,974.87,2674.16,973.08,2697.39z"/>
				</g>
			</g>
		</g>
		<g>
			<g>
				<g>
					<path class="st7" d="M2658.38,3038.63c-235.69,56.94-447.11,70.07-591.92,70.07c-96.35,0-163.2-5.81-188.16-8.4
						c-5.31,59.67-33.69,113.49-75.06,135.56c-12.22,6.52-24.84,9.74-37.33,9.74c-19,0-37.67-7.46-54.17-22.12
						c-26.62-23.66-33.8-69.84-31.25-124.95c-544.48-32.23-778.51-243.81-812.21-300.26c-24.06,40.11-70.4,141.61-36.02,288.14
						c57.23,243.97,297.93,372.33,757.52,403.98c574.68,39.55,971.61,2.48,1213.56-113.37c241.64-115.72,263.86-252.4,265.73-371.43
						c1.01-64.72-7.84-131.47-15.51-176.42C3027.1,2884.59,2939.04,2970.82,2658.38,3038.63z"/>
				</g>
			</g>
		</g>
		<g>
			<g>
				<g>
					<path class="st7" d="M2668.04,2953.09c-117.3,37.4-241.17,60.28-355.63,74.12c-16.98,12.21-39.91,15.72-68.57,10.17
						c-2.84-0.55-5.55-1.24-8.18-2.02c-104.59,9.56-197.21,11.96-263.84,11.96c-45.09,0-78.24-1.1-95.17-1.82
						c0.2,1.47,0.41,2.93,0.61,4.4c1.35,9.88,2,19.78,2.03,29.62c57.67,6.07,381.78,33.72,774.21-61.09
						c350.4-84.65,386.99-195.43,389.86-227.36c2.65-29.48-13.63-56.12-45.09-75.11c0.18,0.72,0.34,1.42,0.53,2.15
						C3011.53,2768.72,3028.96,2838.02,2668.04,2953.09z"/>
				</g>
			</g>
		</g>
		<g class="st8">
			<g>
				<g>
					<g>
						<path class="st3" d="M1112.39,1819.49c0,0-14.3-16.31-6.48-27.92c7.82-11.62,89.8-8.27,88.01,1.12s-6.48,19.43-16.53,22.34
							c-10.05,2.9-25.24,6.7-31.72,6.7C1139.2,1821.72,1112.39,1819.49,1112.39,1819.49z"/>
					</g>
				</g>
			</g>
		</g>
		<g class="st8">
			<g>
				<g>
					<g>
						<path class="st3" d="M1186.56,1551.21c0.22-2.23,1.56-8.49,8.71-11.62c7.15-3.13,90.28-11.01,86.35,0.86
							c-3.93,11.87-18.45,27.06-39.67,30.19s-40.65,1.12-40.65,1.12s-14.07-5.58-14.97-8.27
							C1185.44,1560.81,1186.56,1551.21,1186.56,1551.21z"/>
					</g>
				</g>
			</g>
		</g>
		<g class="st8">
			<g>
				<g>
					<g>
						<path class="st3" d="M1483.54,1764.31c-2,0.17-12.06-3.69-13.4-5.36c-1.34-1.68-2.99-8.38-2.68-11.73
							c0.31-3.35,14.07-29.49,48.58-37.53c34.51-8.04,40.22-2.08,36.36,11.02C1548.54,1733.82,1523.08,1760.96,1483.54,1764.31z"/>
					</g>
				</g>
			</g>
		</g>
		<g class="st8">
			<g>
				<g>
					<g>
						<path class="st3" d="M1266.97,1354.64c0-1.34,21.67-16.08,43.34-14.97c21.67,1.12,53.02,3.72,45.12,18.32
							c-7.9,14.6-54.5,30.6-78.85,20.55C1252.23,1368.49,1266.97,1354.64,1266.97,1354.64z"/>
					</g>
				</g>
			</g>
		</g>
		<g class="st8">
			<g>
				<g>
					<g>
						<path class="st3" d="M1612.8,1397.23c0,0,54.12-1.21,44.94-39.13c-9.18-37.92-61.07-18.02-71.5-4.25
							c-10.43,13.77-9.04,30.83,0.17,34.85C1595.61,1392.72,1612.8,1397.23,1612.8,1397.23z"/>
					</g>
				</g>
			</g>
		</g>
		<g class="st8">
			<g>
				<g>
					<g>
						<path class="st3" d="M1800.18,1591.75c0,0,76.9,5.03,75.73-27.81c-1.17-32.84-106.54-20.36-117.01-11.77
							S1735.34,1587.4,1800.18,1591.75z"/>
					</g>
				</g>
			</g>
		</g>
		<g class="st8">
			<g>
				<g>
					<g>
						<path class="st3" d="M2124.3,1530.95c-2.24-0.02-45.12,8.42-41.32,19.59c3.8,11.17,36.41,27.48,69.92,27.7
							c33.51,0.22,54.95-9.46,46.02-22.04C2189.97,1543.61,2167.3,1531.36,2124.3,1530.95z"/>
					</g>
				</g>
			</g>
		</g>
		<g class="st8">
			<g>
				<g>
					<g>
						<path class="st3" d="M1772.48,1238.26c0.63-1.96,7.37-10.95,25.47-16.75c18.09-5.81,60.25-2.33,56.51,10.72
							s-19.85,25.24-49.81,25.24C1774.68,1257.47,1770.02,1245.85,1772.48,1238.26z"/>
					</g>
				</g>
			</g>
		</g>
		<g class="st8">
			<g>
				<g>
					<path class="st9" d="M2075.84,1231.85c0.21-1.24,11.49-16.88,36.12-19.23c24.63-2.35,37.1,8.08,41.92,15.1
						c4.82,7.02,8.22,26.23-13.16,38.66C2119.33,1278.8,2069.37,1269.34,2075.84,1231.85z"/>
				</g>
			</g>
		</g>
		<g class="st8">
			<g>
				<g>
					<g>
						<path class="st3" d="M2327.58,1332.07c0,0,22.2-8.59,43.01,15.06c20.82,23.64-15.03,35.71-29.95,31.18
							c-14.91-4.52-23.62-5.7-27.64-12.73c-4.02-7.04-4.69-5.86-5.53-11.89c-0.84-6.03,1.51-9.88,1.68-11.06
							S2316.35,1331.91,2327.58,1332.07z"/>
					</g>
				</g>
			</g>
		</g>
		<g class="st8">
			<g>
				<g>
					<g>
						<path class="st3" d="M2591.61,1345.7c0,0,52.72,0.45,66.57,10.5c13.85,10.05,21.89,23.01-8.04,30.6
							c-29.93,7.59-66.34,0.67-66.57-18.99S2591.61,1345.7,2591.61,1345.7z"/>
					</g>
				</g>
			</g>
		</g>
		<g class="st8">
			<g>
				<g>
					<g>
						<path class="st3" d="M2735.35,1528.38c0,0,37.45,11.95,38.33,25.38s-9.62,23.22-32.19,26.71s-49.93-0.56-59.98-14.74
							s-5.58-15.97,9.38-22.34c14.97-6.37,23.68-9.38,25.91-9.72C2719.05,1533.34,2735.35,1528.38,2735.35,1528.38z"/>
					</g>
				</g>
			</g>
		</g>
		<g class="st8">
			<g>
				<g>
					<g>
						<path class="st3" d="M2428.1,1703.67c0,0,27.65-25.04,52.95,9.18c25.29,34.21-23.96,64.37-45.57,48.96
							C2413.86,1746.39,2410.17,1716.23,2428.1,1703.67z"/>
					</g>
				</g>
			</g>
		</g>
		<g class="st8">
			<g>
				<g>
					<g>
						<path class="st3" d="M2161.38,1852.94c0-1.17,8.05-26.77,26.72-24.06c18.68,2.7,23.54,27.67,23.7,34.95
							c0.17,7.29,4.36,17.09-7.71,28.82s-17.42,20.77-24.46,15.66s-7.2-4.1-10.14-7.96c-2.93-3.85-5.45-9.05-5.45-9.05
							s-3.1-18.6-3.02-22.78S2161.38,1852.94,2161.38,1852.94z"/>
					</g>
				</g>
			</g>
		</g>
		<g class="st8">
			<g>
				<g>
					<g>
						<path class="st3" d="M2760.3,1784.61c1.29-1.9,32.52-10.58,58.65,0.31c26.14,10.89,35.18,23.12,12.57,31.83
							c-22.62,8.71-54.28,2.35-65.67-3.02C2754.45,1808.37,2756.43,1790.33,2760.3,1784.61z"/>
					</g>
				</g>
			</g>
		</g>
		<g class="st8">
			<g>
				<g>
					<g>
						<path class="st3" d="M1763.1,1834.82c0,0,17.09-18.35,34.29,7.45s3.13,61.54-14.74,64.22s-22.56,0.34-26.58-13.63
							c-4.02-13.96-7.26-33.06-6.92-34.96C1749.47,1856.01,1763.1,1834.82,1763.1,1834.82z"/>
					</g>
				</g>
			</g>
		</g>
		<g class="st11">
			<g>
				<g>
					
						<ellipse transform="matrix(0.2908 -0.9568 0.9568 0.2908 462.7869 3345.613)" class="st12" cx="2488.09" cy="1360.65" rx="32.76" ry="59.23"/>
				</g>
			</g>
		</g>
		<g class="st8">
			<g>
				<g>
					<path class="st9" d="M1626.61,3014.12c0,0,4.13,172.33,70.42,210.81c66.29,38.48,118.56-8.43,118.56-8.43
						s-116.6,42.89-121.97-52.72c-5.36-95.61,9.38-149.66,9.38-149.66H1626.61z"/>
				</g>
			</g>
		</g>
		<g class="st8">
			<g>
				<g>
					<path class="st9" d="M2256.33,2171.98c-19.25,0.2-64.88,11.62-52.05,21.44c12.83,9.83,135.47,11.62,116.22-3.57
						C2301.25,2174.66,2260.66,2171.93,2256.33,2171.98z"/>
				</g>
			</g>
		</g>
		<g class="st8">
			<g>
				<g>
					<path class="st3" d="M1034.8,2568.28c0,0-34.09,22.98-22.7,53.81c11.39,30.83,28.15,80.42,26.81,104.54
						c-1.34,24.12-18.83,86.45-18.83,86.45s127.44,78.26,197.08,112.58c69.64,34.32,121.46,43.91,120.62,36.19
						s-67.01-62.32-60.98-90.47c6.03-28.15,160.16-6.03,238.57,8.71c78.41,14.74,202.38,48.92,202.38,48.92l17.42-122.64l-71-10.57
						c0,0-10.76,7.22-12.77,11.24c-2.01,4.02-30.83,58.3-30.83,58.3s-20.77,4.69-28.82,2.68c-8.04-2.01-20.77-11.39-20.77-11.39
						l-26.14-60.83c0,0-110.17-15.57-111.74-19.59c-1.57-4.02-156.32-39.77-156.32-39.77l-148.1-65.44L1034.8,2568.28z"/>
				</g>
			</g>
		</g>
		<g class="st8">
			<g>
				<g>
					<path class="st9" d="M1849.72,2882.77c5.41-0.91,223.2-8.71,325.06,0v-86.97l-325.06,4.88l-4.93,82.08"/>
				</g>
			</g>
		</g>
		<g class="st8">
			<g>
				<g>
					<path class="st9" d="M2312.31,2839.29c0,0,106.4-10.11,214.97-28.21s183.56-74.62,183.56-74.62s-173.51,26.36-229.8,31.06
						c-56.29,4.69-174.23,13.38-174.23,13.38L2312.31,2839.29z"/>
				</g>
			</g>
		</g>
		<g class="st11">
			<g>
				<g>
					<path class="st12" d="M1622.59,2610.7c-7.59,5.81-23.68,46.68,6.7,44.34c30.38-2.34,55.84-37.64,38.42-43.44
						C1650.29,2605.78,1622.59,2610.7,1622.59,2610.7z"/>
				</g>
			</g>
		</g>
		<g class="st11">
			<g>
				<g>
					<path class="st12" d="M2042.1,2618.87c4.08,8.12,20.55,35.76,46.46,29.88c25.91-5.88,32.17-32.69,16.08-36.26
						C2088.56,2608.91,2026.01,2586.83,2042.1,2618.87z"/>
				</g>
			</g>
		</g>
		<g class="st11">
			<g>
				<g>
					<path class="st12" d="M2027.13,3151.97c-8.28-10.21,457.26,6.84,741.4-114.87c0,0,24.12,66.88-162.17,116.44
						C2420.06,3203.1,2080.59,3217.89,2027.13,3151.97z"/>
				</g>
			</g>
		</g>
		<g>
			<g>
				<g>
					<g>
						<path class="st13" d="M2658.38,3038.63c-235.69,56.94-447.11,70.07-591.92,70.07c-96.35,0-163.2-5.81-188.16-8.4
							c-5.31,59.67-33.69,113.49-75.06,135.56c-12.22,6.52-24.84,9.74-37.33,9.74c-19,0-37.67-7.46-54.17-22.12
							c-26.62-23.66-33.8-69.84-31.25-124.95c-290.47-17.19-492.57-85.43-623.05-153.93c-8.57,23.81-15.2,51.82-15.2,81.97
							c0,87.17,119.73,285.53,602.23,323.06c482.5,37.53,913.17-6.38,1129.4-124.71c216.23-118.33,239.46-173.73,239.46-173.73
							s29.42,145.11-116.09,272.85c153.81-103.07,170.24-217.16,171.83-318.47c1.01-64.72-7.84-131.47-15.51-176.42
							C3027.1,2884.59,2939.04,2970.82,2658.38,3038.63z"/>
					</g>
				</g>
			</g>
			<g>
				<g>
					<g>
						<path class="st13" d="M1085.15,2935.88c110.89,55.39,304.11,124.6,596.72,141.91c1.27-15.08,3.12-30.65,5.4-46.49
							c-274.69-10.92-472.62-88.66-595.22-156.37c-5.35,8.85-16.56,26.69-27,50.61C1071.57,2928.98,1078.23,2932.43,1085.15,2935.88
							z"/>
					</g>
				</g>
			</g>
			<g>
				<g>
					<g>
						<path class="st13" d="M973.08,2697.39c-1.45,18.88-8.87,49.77-12.16,62.82c34.45,31.1,275.45,233.08,729.52,250.46
							c6.36-39.13,14.74-79.15,22.55-116.44c6.85-32.71,12.99-62,16.29-84.38l-66.83-7.43c-3.78,34.53-13.16,68.32-44.76,79.94
							c-15.48,5.69-29.07,5.26-40.38-1.28c-21.74-12.59-29.97-44.58-36.54-80.84c-468.71-60.4-523.85-237.26-530.24-274.02
							c-11.41-4.98-21.48-10.15-30.06-15.46c-18.86,16.44-51.28,52.22-40.29,79.16l5.63,13.69
							C962.04,2643.03,974.87,2674.16,973.08,2697.39z"/>
					</g>
				</g>
			</g>
			<g>
				<g>
					<g>
						<path class="st13" d="M977.51,2483.17c10.56,9.01,25.7,17.73,44.75,25.9c1.35,0.3,2.58,0.83,3.67,1.56
							c9.24,3.82,19.42,7.51,30.39,11.05c-40.38-27.78-78.29-75.63-93.18-136.48c-19.99-11.34-36.43-24.05-49.48-38.22
							C924.46,2393.46,944.28,2454.83,977.51,2483.17z"/>
					</g>
				</g>
			</g>
			<g>
				<g>
					<g>
						<path class="st13" d="M1765.33,2878.08c2.01,32.17-38.2,246.22-2.68,273.89c35.47,27.63,73.61,1.79,94.52-46.27
							c0.17-1.42,0.3-2.86,0.44-4.29c-11.5,11.15-28.94,14.83-42.02,15.62c-24.57,1.5-16.53-40.81-8.49-72.98
							c8.04-32.17-8.04-119.73-13.4-180.49c-5.36-60.76,20.05-168.76,21.89-172.45c10.54-21.07,29.12-27.12,40.14-28.83
							c21.38-35.83,53.59-59.53,80.51-63.53c21.98-3.29,40.45,5.86,50.7,25.03c5.79,10.83,10.93,21.34,15.91,31.5
							c18.1,36.94,29.84,59.35,44.01,54.68c4.14-1.38,10.2-4.15,17.22-7.35c27.77-12.67,69.73-31.81,98.52-14.21
							c16.34,10,25.28,30.03,26.6,59.54c0.97,22.15,0.37,46.53-0.29,72.32c-0.45,18-0.91,36.49-0.79,54.61
							c3.76-48.09,23.15-121.65,39.84-115.2c18.21,7.03,49.14,135.16,21.45,152.13c-27.68,16.97-51.71,27.68-60.26-4.42
							c1.62,26.41,5.44,50.71,13.6,69.78c13.91,3.24,38.85,5.01,65.42-12.82c40.21-26.98,0-120.45-6.26-173.43
							c-6.26-52.98-12.51-143.6,20.55-164.15c33.06-20.55,92.03,18.76,142.07,18.58c50.04-0.18,51.82-35.56,51.82-35.56
							s-98.29-6.25-262.69-21.44c-164.41-15.19-209.08-67.91-259.54-61.22c-50.46,6.69-160.41,7.22-160.41,7.22l0.17-0.07
							c-52.51,13.84-117.54,26.99-195.92,36.26c-15.21,7.07-59.05,29.04-60.9,48.32c-2.24,23.32,44.67,59.95,49.36,99.27
							c4.69,39.32,0,109.68,16.75,102.98c9.09-3.64,26.27-22.26,40.09-38.55c0.31-4.64,0.64-9.29,0.9-13.85
							c1.93-33.74,3.59-62.88,22.09-73.17c18.39-10.2,38.93-10.2,54.94,0.01c15.65,9.98,33.29,33.17,31.53,86.87l3.24,1.84
							C1755.95,2784.26,1763.32,2845.91,1765.33,2878.08z"/>
					</g>
				</g>
			</g>
			<g>
				<g>
					<g>
						<path class="st13" d="M2668.04,2953.09c-117.3,37.4-241.17,60.28-355.63,74.12c-16.98,12.21-39.91,15.72-68.57,10.17
							c-2.84-0.55-5.55-1.24-8.18-2.02c-104.59,9.56-197.21,11.96-263.84,11.96c-45.09,0-78.24-1.1-95.17-1.82
							c0.2,1.47,0.41,2.93,0.61,4.4c1.35,9.88,2,19.78,2.03,29.62c57.67,6.07,381.78,33.72,774.21-61.09
							c350.4-84.65,386.99-195.43,389.86-227.36c2.65-29.48-13.63-56.12-45.09-75.11c0.18,0.72,0.34,1.42,0.53,2.15
							C3011.53,2768.72,3028.96,2838.02,2668.04,2953.09z"/>
					</g>
				</g>
			</g>
			<g>
				<g>
					<g>
						<path class="st13" d="M2762.41,2552.59c0,0-45.6,5.54-112,9.46C2691.78,2560.51,2729.01,2557.22,2762.41,2552.59z"/>
					</g>
				</g>
			</g>
			<g>
				<g>
					<g>
						<path class="st13" d="M2649.97,2754.14c-121.27,23.81-292.29,34.37-337.71,36.86c3.29,19.52,8.16,40.55,14.96,62.46
							c20.38,65.66,22.01,118.01,5.2,150.37c106.9-13.93,220.96-35.97,329.3-70.51c342.34-109.15,327.05-169.91,316.92-210.12
							c-0.62-2.48-1.24-4.92-1.78-7.31c-3.75-16.41-2.95-38.44-2.1-61.77c1.5-41.34,3.17-87.51-18.38-115.02
							C2924.11,2620.77,2774.35,2729.72,2649.97,2754.14z"/>
					</g>
				</g>
			</g>
			<g>
				<g>
					<g>
						<path class="st13" d="M1731.97,2771.77l-66.3-14.65c-0.3,4.33-0.54,8.65-0.78,12.78c-0.22,3.86-0.46,7.81-0.72,11.8
							l67.41,7.49C1731.99,2783.1,1732.09,2777.3,1731.97,2771.77z"/>
					</g>
				</g>
			</g>
			<g>
				<g>
					<g>
						<path class="st13" d="M1277.47,2497.89c44.23,20.33,259.34,11.62,345.12,4.25c77.27-6.64,288.76-50.87,329.98-59.58v-99.78
							c-55.86,58.41-201.42,117.15-476.62,117.16c-2.52,0-4.99-0.01-7.53-0.01c-86.16-0.33-161.56-3.2-227.14-8.79
							C1241.55,2462.63,1246.65,2483.72,1277.47,2497.89z"/>
					</g>
				</g>
			</g>
			<g>
				<g>
					<g>
						<path class="st13" d="M1639.33,2817.29c-0.42,2.07-0.73,3.59-0.94,4.58C1638.73,2820.36,1639.04,2818.84,1639.33,2817.29z"/>
					</g>
				</g>
			</g>
			<g>
				<g>
					<g>
						<path class="st13" d="M2938.73,2527.14c-36.56,16-83.26,30.6-142.51,40.98c-4.39,13.19-27.63,47.23-78.62,77.24
							c-63.44,37.35-233.21,70.6-233.21,70.6s-2.59-3.27-8.4-5.67c-38.46,26.6-83.61-0.41-117.69-20.8
							c-11.92-7.13-23.18-13.88-32.05-17.1c-3.77-1.38-5.68-0.55-7.53,1.2c-10.18,9.7-15.34,46.61-9.4,96.75
							c42.13-2.28,215.01-12.73,336.65-36.6C2771.68,2709.07,2915.57,2596.3,2938.73,2527.14z"/>
					</g>
				</g>
			</g>
			<g>
				<g>
					<g>
						<path class="st13" d="M1052.94,2148.67c1.38,2.2,9.61,15.27,18.99,30.05C1065.54,2167.34,1059.27,2156.97,1052.94,2148.67z"/>
					</g>
				</g>
			</g>
			<g>
				<g>
					<g>
						<path class="st13" d="M1015.58,2386.5c-39.7-25.31-65.57-58.31-62.67-100.58c4.41-64.39,97.98-138.73,99.78-137.6
							c-1.85-2.4-3.69-4.69-5.55-6.7c-0.49-0.53-1.04-0.98-1.56-1.47c-23.97,10.83-118.21,56.48-139.71,113.7
							c-6.36,16.93-5.61,32.97,2.31,49.03C925.35,2337.73,960.42,2365.43,1015.58,2386.5z"/>
					</g>
				</g>
			</g>
			<g>
				<g>
					<g>
						<path class="st13" d="M1873.73,3024.59c33.67,1.55,164.34,6.04,330.5-7.34c-40.05-38.75-37.99-122.11-36.1-197.51
							c0.07-2.93,0.14-5.78,0.21-8.67h-318.31c1.88,58.44,11.27,125.22,21.04,194.46
							C1871.96,3011.87,1872.84,3018.24,1873.73,3024.59z"/>
					</g>
				</g>
			</g>
			<g>
				<g>
					<g>
						<path class="st13" d="M1260.25,2342.77c-34.76,14.46-38.13,65.52-41.09,85.35c70.36,7.05,153.16,10.65,249.34,11.02
							c2.37,0.01,4.74,0.01,7.09,0.01c101.58,0,186.3-8.48,254.98-22.05c-33.15-5.1-73.57-21.11-91.68-28.78
							c-48.9-9.77-83.42-39.05-114.81-65.72c-1.66-1.41-3.3-2.8-4.94-4.19c-13.57-1.23-34.43-3.2-61.4-6.03
							C1407.7,2307.13,1301.37,2325.66,1260.25,2342.77z"/>
					</g>
				</g>
			</g>
			<g>
				<g>
					<g>
						<path class="st13" d="M901.59,1630.51c56.67-139.39,361.34-346.68,361.34-346.68s-238.55,408.14,429.8,520.38
							c668.35,112.23,1131.16,141.72,1332.66-91.49c0,0,37.99,60.31-97.38,203.72c-31.97,33.87-81.45,61.29-140.2,83.57
							c48.76-12.38,97.44-26.24,145.82-41.93c33.06-22.94,60.8-46.33,83.5-70.28c0.07-0.09,0.12-0.19,0.2-0.28
							c0.12-0.14,0.27-0.24,0.4-0.37c46.9-49.7,71.83-101.88,75.5-157.84c0.95-14.46,0.37-29.23-1.62-44.27
							c-34.51-80.34-144.11-254.81-478.72-420.01c-31.81,25.91-120.93,25.44-218.59-3.97c-108.75-32.75-188.86-89.57-186.11-130.32
							c-493.07-77.9-975.03,119.14-975.03,119.14c-2.07-2.67-2.41-5.75-1.33-9.15c-261.75,148.2-410.23,363.98-399.04,496.26
							c5.59,66.16,43.65,115.7,89.7,152.01C920.31,1885.57,845.75,1767.86,901.59,1630.51z"/>
					</g>
				</g>
			</g>
			<g>
				<g>
					<g>
						<path class="st13" d="M2676.5,2294.41c-17.79-5.43-36.04-10.82-54.21-15.66C2640.31,2284.69,2658.69,2290.37,2676.5,2294.41z"
							/>
					</g>
				</g>
			</g>
			<g>
				<g>
					<g>
						<path class="st13" d="M2168.43,2748.87c-0.98-22.19-6.59-36.56-16.68-42.74c-19.35-11.84-55.28,4.54-79.05,15.38
							c-7.56,3.45-14.09,6.43-19.27,8.16c-31.98,10.73-49.27-24.49-69.24-65.25c-4.9-9.99-9.96-20.33-15.58-30.84
							c-6.12-11.45-15.96-16.25-29.32-14.28c-31.75,4.73-72.91,45.98-83.58,99.85c-4.24,21.41-5.97,45.36-5.99,71.15h319.03
							C2168.98,2775.75,2169,2761.8,2168.43,2748.87z"/>
					</g>
				</g>
			</g>
			<g>
				<g>
					<g>
						<path class="st13" d="M2895.5,2133.52c-21.63,9.06-35.22,38.98-50.54,72.87c-15.21,33.64-32.45,71.77-61.9,95.33
							c-46.63,37.3-119.57,12.8-183.94-8.79c-11.24-3.77-22.25-7.46-32.81-10.74c4.47,4.33-115.43,37.67-92.65,84.57
							c22.79,46.91,376.62,45.57,451.67-17.42c74.99-62.94,57.19-136.8,57.16-136.93c-36.49-43.23-83.15-75.14-83.98-75.7
							C2897.25,2135.86,2896.25,2134.75,2895.5,2133.52z"/>
					</g>
				</g>
			</g>
			<g>
				<g>
					<g>
						<path class="st13" d="M885.44,2020.31c18.59-39.19,54.14-69.72,70.76-82.54c-12.53-7.28-25.06-15.35-37.21-24.29
							c-25.18,21.04-114.27,101.81-77.79,163.06c7.91,13.3,18.82,21.63,31.56,26.81C869.43,2090.44,866.59,2060.05,885.44,2020.31z"
							/>
					</g>
				</g>
			</g>
			<g>
				<g>
					<g>
						<path class="st13" d="M3025.52,1908.96c-22.7,22.89-49.69,45.22-81.32,67.07c-0.82,0.57-1.74,1.02-2.69,1.33
							c-111.21,36.15-224,63.16-335.63,82.97c0.16-0.02,0.32-0.03,0.48-0.05c0,0-160.83,82.66-383.32,88.02
							c-222.49,5.36-434.25,81.76-583.02,28.15c-148.77-53.61-333.35,90.66-340.03,92.48c-0.01,0-0.02,0.01-0.03,0.01
							c64.27-17.52,124.89-32.76,175.87-6.93c13.97,7.08,26.68,16.07,39.18,26.02c0,0,80.33,31.61,114.28,24.34
							c33.95-7.26,47.36-69.81,88.46-53.72s50.68,38.42,87.44,20.55c36.76-17.87,160.96-59.77,241.37-23.18
							c80.42,36.59,166.19,107.52,236.78,76.52c70.59-31,168.88-117.23,233.21-120.13c64.33-2.9,155.47,71.26,224.27,32.84
							c68.8-38.42,74.16-149.22,135.81-163.51c53.94-12.51,149.49,29.7,198.93,30.28c12.22-6.76,21.46-17.6,27.11-34.38
							C3124.75,2012.13,3049.64,1932.38,3025.52,1908.96z"/>
					</g>
				</g>
			</g>
			<g>
				<g>
					<g>
						<path class="st13" d="M1778.3,3223.36c4.87-1.18,9.36-2.93,13.38-4.93C1787.27,3220.34,1782.79,3221.98,1778.3,3223.36z"/>
					</g>
				</g>
			</g>
			<g>
				<g>
					<g>
						<path class="st13" d="M2942.14,2394.1c-43.52,16.42-88.8,27.87-97.72,29.97C2882.97,2415.79,2915.62,2405.62,2942.14,2394.1z"
							/>
					</g>
				</g>
			</g>
			<g>
				<g>
					<g>
						<path class="st13" d="M1537.04,2778.79c-2.4-14.08-4.91-28.45-8.08-41.29c-12.04-48.85-36.75-54.94-102.79-71.2
							c-12.57-3.1-26.43-6.51-41.72-10.62c-84.36-22.65-120.35-64.29-130.17-77.82c-90.75-7.65-165.92-22.97-219.49-42.09
							C1052.01,2585,1136,2725.72,1537.04,2778.79z"/>
					</g>
				</g>
			</g>
			<g>
				<g>
					<g>
						<path class="st13" d="M2982.53,2212.46c0.45,0.6,26.55,35.49,40.26,71.75C3016.81,2259.12,3000.99,2234.34,2982.53,2212.46z"
							/>
					</g>
				</g>
			</g>
			<g>
				<g>
					<g>
						<path class="st13" d="M2588.93,2468.19c-57.78,0-119.45-2.71-184.07-8.3c-20.79-1.8-40.57-3.73-59.58-5.75
							c32.93,15.57,70.22,64.86,132.85,73c72.38,9.4,284.27,25.45,284.27,25.45c83.35-11.55,143.12-31.34,185.72-52.52
							c0.11-0.05,0.22-0.12,0.33-0.16c37.51-18.69,61.68-38.46,76.9-54.6c0.91-0.96,1.67-1.76,2.3-2.39
							c2.75-8.43,2.48-44.28,0.56-83.93C2976.33,2428.04,2811.63,2468.19,2588.93,2468.19z"/>
					</g>
				</g>
			</g>
			<g>
				<g>
					<g>
						<path class="st13" d="M2842.09,2424.55c-10.78,1.69-112.12,14.32-203,22.07C2718.23,2444.24,2786.23,2436.37,2842.09,2424.55z
							"/>
					</g>
				</g>
			</g>
			<g class="st8">
				<g>
					<g>
						<path class="st3" d="M2942.03,1911.82c135.37-143.41,97.38-203.72,97.38-203.72c-201.5,233.21-664.31,203.72-1332.66,91.49
							c-668.35-112.23-429.8-520.38-429.8-520.38s-304.67,207.3-361.34,346.68c-55.84,137.35,18.71,255.06,20.91,258.48
							c79.49,62.69,182.84,85.85,184.48,86.2c0.19,0.04,0.38,0.09,0.56,0.14c2.31,0.63,225.26,60.99,547.75,92.72
							c6.92,0.67,13.8,1.33,20.66,1.98c7.07,0.66,14.11,1.33,21.27,1.96c283.3,24.94,689.47,29.84,1090.59-71.99
							C2860.58,1973.12,2910.06,1945.7,2942.03,1911.82z"/>
					</g>
				</g>
			</g>
			<g class="st11">
				<g>
					<g>
						<path class="st12" d="M1233.17,1249.87c0,0,481.96-197.04,975.03-119.14c-2.75,40.75,77.36,97.57,186.11,130.32
							c97.66,29.41,186.78,29.89,218.59,3.97c334.61,165.2,444.21,339.68,478.72,420.01c-12.49-94.4-82.68-200.03-209.44-314.77
							c-218.68-197.94-545.63-304.76-903.41-304.76c-128.2,0-260.31,13.71-392.88,41.85c-133.33,28.3-252.24,75.73-354.04,133.36
							C1230.77,1244.12,1231.1,1247.21,1233.17,1249.87z"/>
					</g>
				</g>
			</g>
			<g class="st8">
				<g>
					<g>
						<path class="st9" d="M934.22,2718.15c-1.28-0.12-3.18,0.63-5.39,1.81c1.85-0.64,3.65-1.24,5.4-1.8
							C934.23,2718.15,934.22,2718.15,934.22,2718.15z"/>
					</g>
				</g>
			</g>
			<g class="st8">
				<g>
					<g>
						<path class="st9" d="M1065.05,2925.53c10.45-23.92,21.65-41.76,27-50.61c-99.02-54.7-148.94-102.86-150.04-103.94
							c-2.64-2.62-3.69-6.44-2.73-10.04c0.06-0.21,2.91-11,5.95-24.49c-24.46,7.47-54.16,20.66-60.98,35.55
							c-0.48,1.05-0.8,2.09-1.03,3.13c-0.04,0.14-0.05,0.29-0.1,0.43c-0.62,3.33,0.06,6.67,2.08,10.46
							C894.2,2802.81,946.04,2862.6,1065.05,2925.53z"/>
					</g>
				</g>
			</g>
			<g class="st8">
				<g>
					<g>
						<path class="st3" d="M3013.35,3051.2c0,0-23.23,55.4-239.46,173.73c-216.23,118.33-646.91,162.23-1129.4,124.71
							c-482.5-37.53-602.23-235.89-602.23-323.06c0-30.15,6.63-58.16,15.2-81.97c-114.1-59.9-173.44-119.99-189.16-146.33
							c-24.06,40.11-70.4,141.61-36.02,288.14c57.23,243.97,297.93,372.33,757.52,403.98c574.68,39.55,971.61,2.48,1213.56-113.37
							c35.98-17.23,67-34.93,93.9-52.97C3042.77,3196.31,3013.35,3051.2,3013.35,3051.2z"/>
					</g>
				</g>
			</g>
			<g class="st8">
				<g>
					<g>
						<path class="st9" d="M1640.02,2176.45c148.77,53.61,360.53-22.78,583.02-28.15c222.48-5.36,383.32-88.02,383.32-88.02
							c-0.16,0.02-0.32,0.03-0.48,0.05c-198.1,35.15-392.55,47.55-568,47.56c-126,0-242.16-6.37-342.92-15.25
							c-341.36-30.08-582.9-94.57-592.61-97.2c-7.38-1.61-76.9-17.47-146.13-57.68c-16.62,12.82-52.17,43.35-70.76,82.54
							c-18.85,39.74-16.01,70.14-12.68,83.04c24.98,10.16,57.17,7.98,88.69,5.78c40.56-2.86,78.86-5.52,100.95,18.39
							c13.4,14.52,25.32,36.49,37.94,59.75c28.81,53.1,61.37,113.33,120.37,101.52c24.62-4.92,49.01-11.59,72.61-18.04
							c2.22-0.61,4.43-1.21,6.64-1.81c0.01,0,0.02-0.01,0.03-0.01C1306.67,2267.1,1491.25,2122.84,1640.02,2176.45z"/>
					</g>
				</g>
			</g>
			<g class="st8">
				<g>
					<g>
						<path class="st9" d="M1675.95,2070.03c-6.86-0.65-13.74-1.31-20.66-1.98C1662.13,2068.73,1669.02,2069.38,1675.95,2070.03z"/>
					</g>
				</g>
			</g>
			<g class="st8">
				<g>
					<g>
						<path class="st9" d="M1675.95,2070.03c-6.86-0.65-13.74-1.31-20.66-1.98C1662.13,2068.73,1669.02,2069.38,1675.95,2070.03z"/>
					</g>
				</g>
			</g>
			<g class="st8">
				<g>
					<g>
						<path class="st9" d="M952.9,2285.92c-2.9,42.28,22.97,75.28,62.67,100.58c50.47,19.29,117.77,33.02,203.58,41.62
							c2.96-19.83,6.33-70.89,41.09-85.35c41.12-17.11,147.45-35.65,197.49-30.4c26.97,2.83,47.83,4.8,61.4,6.03
							c-17.47-14.8-34.27-28.53-52.69-37.86c-45.61-23.09-102.16-7.65-167.65,10.24c-23.94,6.55-48.69,13.31-74.02,18.37
							c-73.95,14.82-112.07-55.51-142.71-111.98c-3.43-6.32-6.8-12.51-10.14-18.46c-9.38-14.78-17.61-27.85-18.99-30.05
							c-0.09-0.12-0.18-0.24-0.26-0.35C1050.88,2147.19,957.31,2221.52,952.9,2285.92z"/>
					</g>
				</g>
			</g>
			<g class="st8">
				<g>
					<g>
						<path class="st9" d="M1056.33,2521.68c51.26,16.52,120.86,29.58,204.08,36.16c0.37,0.01,0.74,0.04,1.1,0.08
							c80.94,6.33,174.6,6.57,276.65-2.14c256.61-21.9,388.32-88.36,414.41-102.86v-10.38c-41.22,8.71-252.71,52.94-329.98,59.58
							c-85.78,7.37-300.89,16.08-345.12-4.25c-30.82-14.17-35.92-35.26-36.19-46.76c-128.4-10.94-219-32.38-278.14-65.93
							C978.04,2446.05,1015.95,2493.9,1056.33,2521.68z"/>
					</g>
				</g>
			</g>
			<g class="st8">
				<g>
					<g>
						<path class="st9" d="M1603.16,2821.12c-16.75,6.7-12.06-63.66-16.75-102.98c-4.69-39.32-51.6-75.94-49.36-99.27
							c1.85-19.27,45.7-41.25,60.9-48.32c-18.61,2.2-37.88,4.21-58.01,5.93c-53.98,4.61-105.79,6.72-154.69,6.72
							c-35.35,0-69.16-1.12-101.28-3.16c16.87,16.3,49.67,40.5,105.88,55.6c15.13,4.06,28.86,7.44,41.3,10.5
							c66.38,16.34,102.94,25.35,117.99,86.39c3.58,14.54,6.3,30.49,8.93,45.92c6.27,36.8,12.75,74.86,29.65,84.65
							c5.8,3.35,13.25,3.27,22.8-0.24c15.68-5.76,23.57-21.53,27.87-40.99c0.21-0.98,0.52-2.51,0.94-4.58
							c1.63-8.65,2.68-17.88,3.43-27.24c0.01-0.1-0.01-0.19,0-0.28c0.01-0.05,0.02-0.09,0.03-0.13c0.19-2.36,0.3-4.71,0.46-7.07
							C1629.42,2798.85,1612.25,2817.48,1603.16,2821.12z"/>
					</g>
				</g>
			</g>
			<g class="st8">
				<g>
					<g>
						<path class="st9" d="M1793.47,3217.53c29.66-15.82,57.23-57.55,63.7-111.84c-20.91,48.06-59.05,73.91-94.52,46.27
							c-35.52-27.67,4.69-241.72,2.68-273.89c-2.01-32.17-9.38-93.82-9.38-93.82l-3.24-1.84c-0.1,3.11-0.24,6.29-0.48,9.61
							c-0.22,3.05-0.53,6.32-0.93,9.77c0,0.01,0,0.02,0,0.03c0,0,0,0.01,0,0.01c-2.82,24.35-9.92,58.2-17.97,96.64
							c-22.26,106.2-55.9,266.7-7.78,309.47c19.36,17.2,37.84,19.02,52.75,15.41c4.5-1.38,8.97-3.02,13.38-4.93
							C1792.27,3218.14,1792.89,3217.84,1793.47,3217.53z"/>
					</g>
				</g>
			</g>
			<g class="st8">
				<g>
					<g>
						<path class="st9" d="M1710.01,2713.07c-9.62-6.13-21.9-5.9-33.68,0.64c-6.97,3.87-9.32,23.74-10.66,43.41l66.3,14.65
							C1731.32,2742.74,1723.64,2721.77,1710.01,2713.07z"/>
					</g>
				</g>
			</g>
			<g class="st8">
				<g>
					<g>
						<path class="st9" d="M1954.11,2527.14c50.46-6.69,95.14,46.03,259.54,61.22c164.41,15.19,262.69,21.44,262.69,21.44
							s-1.79,35.38-51.82,35.56c-50.04,0.18-109.01-39.13-142.07-18.58c-33.06,20.55-26.81,111.17-20.55,164.15
							c6.26,52.98,46.46,146.45,6.26,173.43c-26.57,17.83-51.51,16.06-65.42,12.82c7.57,17.7,18.87,30.9,35.59,37.12
							c21.45-2,43.39-4.3,65.7-6.95c1.07-0.97,2.18-1.89,3.15-2.98c21.29-23.76,21.37-76.52,0.2-144.76
							c-7.54-24.29-13.47-50.46-17.16-75.78c-0.18-0.68-0.3-1.39-0.33-2.13c0-0.06,0.01-0.12,0.01-0.18
							c-7.67-54.39-4.91-104.45,14.5-122.95c7.94-7.58,18.22-9.62,28.96-5.69c10.73,3.9,22.82,11.13,35.62,18.79
							c44.96,26.89,78.92,43.45,106.62,11.02c27.99-32.75,66.63-73.7,111.79-98.92c-10.39-0.06-20.93-0.18-31.77-0.45
							c-345.29-8.46-557.34-97.12-592.05-112.7c-16.08,9.16-70.74,37.59-169.7,63.67l-0.17,0.07
							C1793.7,2534.36,1903.65,2533.82,1954.11,2527.14z"/>
					</g>
				</g>
			</g>
			<g class="st8">
				<g>
					<g>
						<path class="st9" d="M2484.39,2715.97c0,0,169.77-33.26,233.21-70.6c50.99-30.02,74.23-64.06,78.62-77.24
							c-42.31,7.42-90.96,12.7-147.11,14.75c-63.51,10.52-120.4,69.68-157.71,113.32c-4.98,5.82-10.13,10.46-15.41,14.11
							C2481.8,2712.7,2484.39,2715.97,2484.39,2715.97z"/>
					</g>
				</g>
			</g>
			<g class="st8">
				<g>
					<g>
						<path class="st9" d="M1953.37,2308.05c0.26-0.61,0.57-1.2,0.93-1.74c1.11-2.33,1.99-4.63,2.72-6.92
							c-55.5,1.85-98.58,24.47-140.58,46.54c-37.32,19.62-75.92,39.91-121.74,44.68c-20.61,2.14-39.04,1.06-55.8-2.29
							c18.11,7.67,58.53,23.67,91.68,28.78C1860.68,2391.39,1933.19,2347.39,1953.37,2308.05z"/>
					</g>
				</g>
			</g>
			<g class="st8">
				<g>
					<g>
						<path class="st9" d="M2925.34,2349.34c-75.06,62.99-428.89,64.33-451.67,17.42c-22.78-46.91,97.12-80.25,92.65-84.57
							c-17.61-5.46-34-9.75-48.21-11.31c-38.07-4.2-68.45,18.44-106.89,47.08c-29.47,21.96-62.86,46.84-106.98,64.8
							c-20.33,8.27-38.07,11.73-54.4,11.73c-34.74,0-63.03-15.67-96.05-33.95c-34.89-19.32-74.45-41.22-135.42-55.01
							c-14.1-3.19-27.37-4.95-40.07-5.73c-1.1,4.5-2.74,9.1-4.95,13.78v34.16c21.03,12.26,127.05,64.91,433.31,91.45
							c85.61,7.42,163.23,9.51,232.43,7.43c90.88-7.75,192.23-20.39,203-22.07c0.76-0.16,1.57-0.31,2.33-0.47
							c8.92-2.1,54.2-13.55,97.72-29.97c46.48-20.18,74.07-44.48,80.83-70.08c3.46-13.1,3.01-26.5-0.17-39.81
							c-13.71-36.27-39.81-71.15-40.26-71.75c-0.01-0.01-0.02-0.03-0.03-0.04C2982.53,2212.54,3000.33,2286.4,2925.34,2349.34z"/>
					</g>
				</g>
			</g>
			<g class="st8">
				<g>
					<g>
						<path class="st9" d="M2345.28,2454.14c-210.16-22.28-313.57-56.46-358.64-76.42c-7.25-2.44-11.96-4.57-13.3-6.27v80.8
							c36.53,16.25,244.63,102.02,582.78,110.3c33.65,0.83,64.99,0.6,94.28-0.5c66.39-3.92,112-9.46,112-9.46
							s-211.9-16.06-284.27-25.45C2415.5,2519.01,2378.21,2469.71,2345.28,2454.14z"/>
					</g>
				</g>
			</g>
			<g class="st8">
				<g>
					<g>
						<path class="st9" d="M1973.35,2371.45c1.34,1.7,6.05,3.83,13.3,6.27C1981.47,2375.43,1977.06,2373.32,1973.35,2371.45z"/>
					</g>
				</g>
			</g>
			<g class="st8">
				<g>
					<g>
						<path class="st9" d="M1973.35,2371.45c1.34,1.7,6.05,3.83,13.3,6.27C1981.47,2375.43,1977.06,2373.32,1973.35,2371.45z"/>
					</g>
				</g>
			</g>
			<g class="st11">
				<g>
					<g>
						<path class="st12" d="M2876.64,2081.73c-61.65,14.3-67.01,125.09-135.81,163.51c-68.8,38.42-159.94-35.74-224.27-32.84
							c-64.33,2.9-162.62,89.13-233.21,120.13c-70.59,31-156.36-39.94-236.78-76.52c-80.42-36.59-204.61,5.31-241.37,23.18
							c-36.76,17.87-46.34-4.47-87.44-20.55s-54.51,46.46-88.46,53.72c-33.95,7.26-114.28-24.34-114.28-24.34
							c7.5,5.97,14.93,12.28,22.52,18.73c39.06,33.19,79.4,67.37,145.62,63.84c26.12-6.84,58.17-15.65,87.94-24.95
							c11.87-5.65,23.67-11.79,35.68-18.1c47.62-25.04,96.61-50.69,162.77-49.06c0.23,0,0.46-0.04,0.7-0.03
							c0.08,0.01,0.16,0.03,0.24,0.04c16.37,0.47,33.75,2.54,52.47,6.78c63.86,14.44,106.58,38.09,140.9,57.1
							c3.69,2.04,7.25,4,10.76,5.92c31.76,11.61,69.69,22.52,93.55,19.37c14.2-1.87,34.18-8.42,55.24-16.75
							c29.09-15.19,53.41-33.23,75.4-49.61c40.43-30.13,75.27-56.11,121.58-51.08c24.96,2.74,54.3,12.58,85.36,23.01
							c5.46,1.83,11,3.68,16.57,5.52c18.17,4.84,36.42,10.23,54.21,15.66c36.5,8.27,70.53,9.53,93.58-8.9
							c25.55-20.44,41-54.62,55.95-87.68c20.31-44.92,39.49-87.36,82.64-87.95c17.45-0.22,37.19,2.64,58.1,5.69
							c46.17,6.74,83.81,10.28,108.81-3.55C3026.13,2111.43,2930.58,2069.23,2876.64,2081.73z"/>
					</g>
				</g>
			</g>
			<g class="st8">
				<g>
					<g>
						<path class="st9" d="M2174.61,2348.29c41.32,22.57,71.68,35.62,121.8,15.22c9.48-3.86,18.42-8.12,26.99-12.6
							c-21.06,8.33-41.05,14.87-55.24,16.75C2244.29,2370.81,2206.37,2359.89,2174.61,2348.29z"/>
					</g>
				</g>
			</g>
			<g class="st11">
				<g>
					<g>
						<path class="st12" d="M2174.61,2348.29c41.32,22.57,71.68,35.62,121.8,15.22c9.48-3.86,18.42-8.12,26.99-12.6
							c-21.06,8.33-41.05,14.87-55.24,16.75C2244.29,2370.81,2206.37,2359.89,2174.61,2348.29z"/>
					</g>
				</g>
			</g>
			<g class="st8">
				<g>
					<g>
						<path class="st9" d="M1692.55,2369.95c28.35-2.95,53.62-12.44,78.55-24.3c-29.77,9.3-61.82,18.1-87.94,24.95
							C1686.25,2370.43,1689.34,2370.28,1692.55,2369.95z"/>
					</g>
				</g>
			</g>
			<g class="st11">
				<g>
					<g>
						<path class="st12" d="M1692.55,2369.95c28.35-2.95,53.62-12.44,78.55-24.3c-29.77,9.3-61.82,18.1-87.94,24.95
							C1686.25,2370.43,1689.34,2370.28,1692.55,2369.95z"/>
					</g>
				</g>
			</g>
			<g class="st11">
				<g>
					<g>
						<path class="st12" d="M1815.59,2691.11c-1.84,3.68-27.25,111.69-21.89,172.45c5.36,60.76,21.44,148.32,13.4,180.49
							c-8.04,32.17-16.08,74.47,8.49,72.98c13.08-0.8,30.52-4.47,42.02-15.62c1.5-15.38,1.4-31.67-0.93-48.69
							c-2.02-14.78-4.1-29.57-6.18-44.28c-10.45-74.1-20.46-145.41-21.46-207.65c0-0.03-0.01-0.06-0.01-0.1
							c0-0.02,0.01-0.04,0.01-0.06c-0.49-31.01,1.21-59.81,6.3-85.5c3.86-19.51,11.13-37.3,20.4-52.84
							C1844.71,2664,1826.13,2670.04,1815.59,2691.11z"/>
					</g>
				</g>
			</g>
			<g class="st11">
				<g>
					<g>
						<path class="st12" d="M2249.39,2911.81c27.7-16.98-3.24-145.1-21.45-152.13c-16.69-6.44-36.08,67.11-39.84,115.2
							c0.08,11.05,0.38,21.95,1.03,32.52C2197.68,2939.49,2221.71,2928.78,2249.39,2911.81z"/>
					</g>
				</g>
			</g>
		</g>
		<g>
			<g>
				<g>
					<g>
						<path class="st3" d="M2037.83,2120.18c-126.39,0-242.9-6.39-343.97-15.29c-339.24-29.89-580.5-93.75-594.44-97.5
							c-18.24-4.01-282.51-65.71-299.57-267.63c-8.87-104.89,68.46-247.42,201.79-371.98c152.04-142.02,357.08-246,577.37-292.76
							c243.83-51.76,494.54-55.61,725.05-11.14c240.18,46.34,447.77,143.82,600.3,281.89c156.99,142.1,229.56,268.27,221.85,385.71
							c-6.19,94.26-63.44,177.56-175.04,254.67c-1.81,1.25-3.79,2.23-5.88,2.91C2635.31,2089.83,2313.21,2120.17,2037.83,2120.18z
							 M1978.94,1077.77c-127.37,0-258.72,13.63-390.5,41.61c-212.33,45.08-409.74,145.06-555.83,281.54
							c-123.41,115.29-195.28,243.66-187.57,335.01c14.5,171.6,262.03,226.71,264.52,227.24c0.41,0.09,0.82,0.19,1.22,0.3
							c2.41,0.66,244.05,66.08,588.05,96.32c316.04,27.77,785.54,30.67,1229.27-112.85c97.68-68.16,147.68-139.63,152.85-218.44
							c6.65-101.29-63-218.75-207.03-349.12C2657.5,1183.47,2333.64,1077.77,1978.94,1077.77z"/>
					</g>
				</g>
			</g>
			<g>
				<g>
					<g>
						<path class="st3" d="M2249.81,2406.8c-37.84,0-68.35-16.89-101.97-35.51c-34.18-18.92-72.92-40.37-132.19-53.78
							c-83.04-18.79-136.69,9.42-193.5,39.3c-38.35,20.16-78.01,41.01-126.19,46.03c-85.87,8.91-135.81-33.47-179.85-70.88
							c-18.7-15.89-36.36-30.9-55.24-40.46c-41.36-20.96-95.81-6.09-158.85,11.14c-24.14,6.6-49.1,13.42-74.85,18.57
							c-82.82,16.55-125.07-61.31-155.92-118.17c-11.6-21.4-22.57-41.61-33.17-53.09c-11.31-12.26-43.35-10.01-74.34-7.84
							c-52.22,3.65-117.12,8.19-150.97-48.65c-57.04-95.8,86.45-206.8,92.59-211.48c9.96-7.58,24.19-5.68,31.78,4.29
							c7.59,9.96,5.68,24.17-4.27,31.77l0,0c-1.18,0.9-117.01,91.98-81.13,152.22c18.21,30.58,54.9,30.38,108.83,26.62
							c41.67-2.9,84.75-5.93,110.83,22.32c14.44,15.65,26.72,38.27,39.71,62.23c33.47,61.68,60.77,104.63,107.17,95.33
							c24.2-4.84,48.39-11.45,71.79-17.84c69.08-18.88,134.33-36.72,191.31-7.85c23.64,11.98,44.21,29.45,64.1,46.35
							c40.71,34.59,79.04,67.27,145.8,60.33c39.49-4.11,73.62-22.06,109.76-41.06c58.71-30.87,125.24-65.86,224.61-43.39
							c65.57,14.83,109.14,38.96,144.15,58.34c47.08,26.07,73.02,40.43,121.96,20.51c40.2-16.36,71.8-39.91,99.69-60.68
							c40.74-30.36,79.2-59.08,130.25-53.44c26.27,2.89,56.23,12.93,87.94,23.57c56.36,18.91,120.23,40.35,152.76,14.32
							c23.25-18.6,38.08-51.41,52.42-83.14c21-46.44,42.72-94.47,93.68-95.17c18.39-0.28,38.62,2.7,60.04,5.82
							c66.73,9.72,108.25,12.58,122.51-29.7c19.42-57.67-51.8-136.72-80.88-162.31c-9.39-8.27-10.32-22.59-2.06-31.99
							c8.25-9.4,22.54-10.35,31.98-2.09c5.2,4.56,126.97,112.8,93.94,210.87c-27.36,81.2-110.98,69.01-172.03,60.1
							c-19.56-2.85-37.95-5.52-52.87-5.34c-20.65,0.28-33.78,26.07-52.97,68.51c-15.78,34.9-33.66,74.46-65.42,99.87
							c-51.84,41.47-128.17,15.86-195.51-6.74c-29.34-9.84-57.03-19.14-78.46-21.49c-33.32-3.61-60.51,16.64-98.21,44.72
							c-30.06,22.39-64.12,47.78-109.69,66.32C2286.86,2403.1,2267.53,2406.8,2249.81,2406.8z"/>
					</g>
				</g>
			</g>
			<g>
				<g>
					<g>
						<path class="st3" d="M1475.85,2472.22c-2.49,0-4.96,0-7.47-0.01c-360.66-1.39-537.08-47.66-589.87-154.71
							c-12.02-24.37-13.23-49.71-3.6-75.31c29.1-77.38,149.87-129.35,163.54-135.02c11.6-4.78,24.82,0.69,29.62,12.25
							c4.81,11.56-0.68,24.83-12.24,29.64c-32.14,13.38-119.7,59.06-138.5,109.14c-5.16,13.76-4.58,26.23,1.84,39.25
							c43.51,88.21,212.94,128.12,549.37,129.42c2.45,0.01,4.9,0.01,7.33,0.01c345.99,0,468.46-95.49,471.11-139.42
							c0.76-12.49,11.31-22.09,24-21.27c12.5,0.76,22.02,11.5,21.27,24C1986.93,2378.17,1823,2472.21,1475.85,2472.22z"/>
					</g>
				</g>
			</g>
			<g>
				<g>
					<g>
						<path class="st3" d="M1382.49,2595.64c-213.42,0-370.49-39.59-426.43-87.31c-66.77-56.95-85.35-210.38-86.11-216.88
							c-1.45-12.44,7.45-23.69,19.89-25.15c12.39-1.47,23.69,7.44,25.16,19.88c4.63,39.41,26.32,149.95,70.49,187.64
							c51.68,44.09,257.01,94.85,551.63,69.71c237.38-20.27,366.92-79.13,403.16-97.98v-133.54c0-12.53,10.15-22.68,22.68-22.68
							c12.52,0,22.68,10.15,22.68,22.68v146.89c0,7.8-4.01,15.05-10.62,19.2c-5.53,3.48-138.89,85.42-434.04,110.61
							C1485.47,2593.47,1432.41,2595.64,1382.49,2595.64z"/>
					</g>
				</g>
			</g>
			<g>
				<g>
					<g>
						<path class="st3" d="M2591.24,2480.63c-58.64,0-121.37-2.77-187.44-8.5c-357.95-31.01-450.66-97.68-454.43-100.5
							c-10.03-7.5-12.07-21.72-4.57-31.74c7.46-9.96,21.53-12.03,31.54-4.72c1.93,1.33,93.16,62.48,431.37,91.78
							c352.09,30.5,583.27-29.98,603.37-106.07c17.16-64.93-80.4-147.6-119.43-173.98c-10.38-7.01-13.11-21.11-6.09-31.48
							c7.01-10.38,21.1-13.11,31.48-6.09c6.83,4.61,166.69,114.12,137.89,223.14C3030.22,2426.03,2851.36,2480.63,2591.24,2480.63z"
							/>
					</g>
				</g>
			</g>
			<g>
				<g>
					<g>
						<path class="st3" d="M2594.8,2596.1c-12.98,0-26.12-0.17-39.49-0.49c-379.44-9.29-593.4-111.96-602.32-116.33
							c-11.25-5.5-15.91-19.09-10.41-30.33c5.52-11.25,19.11-15.91,30.33-10.4c3.08,1.49,215.72,102.72,583.5,111.73
							c219.14,5.34,386.78-35.93,459.91-113.3c2.55-16.63,0.46-74.79-3.18-122.88c-0.95-12.49,8.41-23.38,20.9-24.33
							c12.46-0.94,23.38,8.42,24.32,20.9c10.62,140,0.46,148.86-7.71,155.97c0,0.03-0.55,0.63-1.25,1.37
							C2971.01,2551.06,2810.41,2596.1,2594.8,2596.1z M3020.83,2432.48c-0.13,0.11-0.26,0.23-0.39,0.34
							C3020.59,2432.7,3020.71,2432.58,3020.83,2432.48z M3020.85,2432.47C3020.85,2432.47,3020.85,2432.47,3020.85,2432.47
							S3020.85,2432.47,3020.85,2432.47z"/>
					</g>
				</g>
			</g>
			<g>
				<g>
					<g>
						<path class="st3" d="M1765.77,3258.01c-21.85,0-43.29-8.54-62.19-25.34c-62.44-55.51-29.26-213.79-2.61-340.98
							c8.96-42.73,16.69-79.64,18.29-102c3.55-49.83-11.24-63.3-15.85-66.25c-7.4-4.71-15.8-1.67-20,0.43
							c-3.95,6.61-5.33,30.65-6.25,46.74c-2.53,44.39-6.01,105.19-55.23,123.29c-19.07,7.01-36.15,6.28-50.78-2.18
							c-30.33-17.56-37.79-61.36-45.68-107.72c-2.53-14.84-5.14-30.19-8.44-43.55c-9.92-40.23-24.86-45.22-93.79-62.2
							c-12.64-3.11-26.58-6.55-41.97-10.68c-104.25-27.99-139.12-85.41-140.55-87.84c-6.36-10.79-2.77-24.69,8.01-31.05
							c10.72-6.32,24.52-2.82,30.93,7.81c0.7,1.1,29.1,44.65,113.37,67.28c15.04,4.04,28.69,7.4,41.06,10.45
							c68.68,16.92,110.14,27.13,126.97,95.38c3.69,14.97,6.45,31.15,9.11,46.79c4.97,29.2,11.78,69.19,23.7,76.09
							c2.99,1.75,8.39,0.34,12.4-1.13c21.29-7.83,23.58-47.93,25.6-83.31c2.14-37.37,3.98-69.64,28.4-83.21
							c22.39-12.44,47.62-12.3,67.51,0.38c19.38,12.35,41.47,41.06,36.71,107.72c-1.82,25.43-9.84,63.73-19.13,108.08
							c-20.36,97.15-54.44,259.74-11.65,297.78c17.12,15.22,35.27,17.89,53.98,7.92c35.57-18.97,66.54-81.13,56.82-152.3
							c-2.02-14.78-4.1-29.55-6.18-44.27c-15.81-112.14-30.75-218.07-15.04-297.39c13.99-70.69,67.49-119.64,111.13-126.14
							c27.01-4.01,50.69,7.72,63.34,31.4c5.89,11.02,11.09,21.63,16.12,31.88c8.71,17.78,21.77,44.43,29.1,48.4
							c3.92-1.33,9.78-4.01,15.98-6.84c30.14-13.75,75.7-34.52,110.04-13.51c20.04,12.26,30.96,35.64,32.46,69.48
							c1,22.58,0.38,47.17-0.28,73.19c-2.48,98.57-0.45,174.73,48.95,184.33c22.64,4.4,38.75,1.44,47.9-8.76
							c17.8-19.86,16.89-70.79-2.39-132.92c-25.39-81.81-33.44-181.43,0.27-213.57c11.34-10.81,26.51-13.86,41.65-8.35
							c11.84,4.3,24.41,11.83,37.72,19.79c47.85,28.64,71.08,36.86,90.98,13.59c40.8-47.73,103.65-112.56,178.09-124.59
							c12.38-1.98,24.01,6.41,26,18.77c2,12.36-6.4,24-18.77,26c-59.73,9.64-114.69,66.99-150.85,109.28
							c-48.01,56.16-111.07,18.41-148.74-4.14c-9.87-5.91-19.27-11.53-26.65-14.77c-8.09,16.06-12.37,80.8,13.62,164.54
							c25.07,80.79,22.53,143.52-7.16,176.63c-14.12,15.76-41.23,32.56-90.31,23.01c-91-17.67-88.03-135.4-85.65-229.99
							c0.63-25.22,1.24-49.03,0.3-70.04c-0.77-17.36-4.61-29-10.82-32.81c-13.83-8.43-50.1,8.13-67.54,16.09
							c-7.87,3.59-14.68,6.7-20.48,8.63c-42.23,14.07-63.54-29.42-84.16-71.49c-4.86-9.9-9.87-20.15-15.39-30.46
							c-3.09-5.78-7.14-9.35-16.67-7.92c-23.37,3.48-62.93,37.56-73.33,90.08c-14.21,71.79,0.2,174.02,15.47,282.25
							c2.08,14.78,4.18,29.62,6.21,44.46c11.48,84.02-22.33,167.49-80.41,198.46C1794.85,3254.27,1780.22,3258.01,1765.77,3258.01z
							 M1683.8,2723.27"/>
					</g>
				</g>
			</g>
			<g>
				<g>
					<g>
						<path class="st3" d="M1549.7,2813.6c-0.94,0-1.89-0.06-2.84-0.18c-530.54-66.29-548.9-283.78-549.42-293.01
							c-0.7-12.5,8.86-23.21,21.36-23.92c12.63-0.71,23.21,8.86,23.92,21.36c0.14,1.56,22.03,189.62,509.77,250.56
							c12.43,1.56,21.24,12.89,19.69,25.31C1570.74,2805.21,1560.98,2813.6,1549.7,2813.6z"/>
					</g>
				</g>
			</g>
			<g>
				<g>
					<g>
						<path class="st3" d="M2178.97,2823.36h-339.55c-12.53,0-22.68-10.15-22.68-22.68s10.15-22.68,22.68-22.68h339.55
							c12.52,0,22.68,10.15,22.68,22.68S2191.5,2823.36,2178.97,2823.36z"/>
					</g>
				</g>
			</g>
			<g>
				<g>
					<g>
						<path class="st3" d="M1741,2823.37c-0.84,0-1.68-0.05-2.53-0.14l-87.89-9.76c-12.45-1.38-21.41-12.6-20.03-25.04
							c1.39-12.45,12.61-21.42,25.04-20.03l87.89,9.76c12.45,1.38,21.41,12.6,20.03,25.04
							C1762.23,2814.79,1752.4,2823.37,1741,2823.37z"/>
					</g>
				</g>
			</g>
			<g>
				<g>
					<g>
						<path class="st3" d="M2300.24,2803.89c-12.04,0-22.07-9.47-22.63-21.62c-0.58-12.51,9.09-23.12,21.6-23.7
							c2.05-0.09,206.58-9.83,344.38-36.88c138.89-27.26,286.03-157.64,286.15-212.24c0.04-12.51,10.18-22.62,22.68-22.62
							c0.01,0,0.04,0,0.06,0c12.52,0.03,22.65,10.2,22.62,22.73c-0.21,88.55-175.17,227.66-322.77,256.64
							c-141.12,27.7-342.52,37.28-351.02,37.67C2300.96,2803.89,2300.6,2803.89,2300.24,2803.89z"/>
					</g>
				</g>
			</g>
			<g>
				<g>
					<g>
						<path class="st3" d="M1699.36,3044.14c-0.25,0-0.5,0-0.75-0.01c-509.31-16.54-755.03-254.31-765.24-264.42
							c-5.77-5.71-8.04-14.08-5.96-21.92c3.08-11.64,11.38-45.61,12.72-62.94c1.18-15.36-11.48-46.08-24.87-78.6l-5.69-13.84
							c-23.67-58.02,47.95-115.99,56.19-122.41c9.88-7.7,24.13-5.92,31.83,3.96c7.69,9.88,5.92,24.13-3.96,31.82
							c-16.69,13.09-50.51,48.79-42.06,69.49l5.63,13.71c16.85,40.91,30.17,73.23,28.15,99.35c-1.29,16.75-6.94,42.11-10.7,57.59
							c48.83,42.2,288.66,228.7,725.44,242.89c12.52,0.41,22.33,10.88,21.93,23.4C1721.61,3034.47,1711.54,3044.14,1699.36,3044.14z
							"/>
					</g>
				</g>
			</g>
			<g>
				<g>
					<g>
						<path class="st3" d="M1971.56,3059.61c-66.33,0-106.99-2.37-108.31-2.45c-12.5-0.77-22-11.53-21.23-24.03
							c0.77-12.5,11.5-22,24.03-21.24c4.26,0.25,430.51,24.94,791.94-90.3c331.33-105.64,317.19-161.83,308.75-195.41
							c-0.65-2.57-1.28-5.09-1.85-7.57c-4.11-17.98-3.28-40.8-2.4-64.97c1.61-44.09,3.43-94.05-23.9-115.12
							c-9.91-7.65-11.76-21.89-4.11-31.81c7.65-9.92,21.88-11.75,31.8-4.12c45.81,35.32,43.44,100.4,41.53,152.69
							c-0.77,21.1-1.49,41.04,1.29,53.21c0.49,2.16,1.05,4.36,1.61,6.61c18.05,71.72,5,140.02-338.95,249.68
							C2413.91,3047.02,2124.51,3059.61,1971.56,3059.61z"/>
					</g>
				</g>
			</g>
			<g>
				<g>
					<g>
						<path class="st3" d="M1691.61,3111.47c-0.42,0-0.84-0.01-1.25-0.03c-304.08-16.58-504.99-88.53-619.99-145.97
							c-126.77-63.32-197.61-132.67-214.3-163.83c-7.67-14.33-8.31-29.34-1.85-43.42c17.54-38.24,86.18-55.25,99.76-58.28
							c12.24-2.71,24.33,4.98,27.06,17.21c2.72,12.22-4.97,24.33-17.19,27.06l0,0c-28.12,6.31-63.13,21.39-68.41,32.93
							c-0.28,0.61-0.49,1.05,0.61,3.1c7.33,13.69,61.84,78.35,194.59,144.67c111.16,55.53,305.86,125.11,602.18,141.26
							c12.51,0.68,22.09,11.37,21.41,23.88C1713.57,3102.11,1703.56,3111.47,1691.61,3111.47z"/>
					</g>
				</g>
			</g>
			<g>
				<g>
					<g>
						<path class="st3" d="M2066.36,3120.96c-123.43,0-198.88-9.47-200.5-9.68c-12.41-1.62-21.16-13-19.54-25.42
							c1.63-12.41,13.07-21.17,25.42-19.55c3.46,0.45,350.21,43.74,778.88-59.82c272.12-65.74,374.97-154.95,380.5-216.52
							c3.69-41.18-37.53-64.02-55.43-71.93c-11.46-5.06-16.64-18.45-11.58-29.91c5.06-11.45,18.46-16.63,29.91-11.57
							c55.9,24.7,86.65,68.61,82.26,117.46c-9.11,101.52-160.38,195.03-415.01,256.55
							C2424.54,3107.76,2212.04,3120.96,2066.36,3120.96z"/>
					</g>
				</g>
			</g>
			<g>
				<g>
					<g>
						<path class="st3" d="M1997.27,3538.68c-125.27,0-261.68-5.11-409.74-15.31c-258.84-17.82-448.81-66.46-580.76-148.69
							c-110.99-69.17-178.6-160.99-206.69-280.71c-48.78-207.94,51.45-330.9,55.74-336.04c8.04-9.6,22.34-10.88,31.95-2.85
							c9.58,8.01,10.88,22.27,2.91,31.88l0,0c-3.69,4.48-89.8,111.78-46.43,296.65c25.21,107.45,86.23,190.07,186.52,252.58
							c123.76,77.12,312.13,124.88,559.89,141.94c564.55,38.87,970.76,1.13,1207.41-112.2c235.34-112.7,256.87-239.91,258.75-360.54
							c1.72-110.26-25.55-226.51-25.83-227.67c-2.89-12.19,4.64-24.41,16.83-27.3c12.18-2.87,24.41,4.64,27.3,16.82
							c1.18,4.97,28.86,122.99,27.04,238.86c-2.01,128.93-25.81,276.85-284.5,400.74
							C2633.47,3495.03,2363.13,3538.68,1997.27,3538.68z"/>
					</g>
				</g>
			</g>
			<g>
				<g>
					<g>
						<path class="st3" d="M1187,1780.73c22.48,3.8,16.14,30.42,2.53,40.64c-24.65,24.02-110.38,28.92-95.16-22.39
							c3.22-7.46,7.68-13.58,13.56-18.25c-1.57,7.22-2.87,14.14-2.64,20.41c0.1,17.1,16.05,15.14,28.74,15.29
							c15.22-0.76,32.26-3,45.12-9.49C1190.07,1801.56,1198.27,1791.78,1187,1780.73L1187,1780.73z"/>
					</g>
				</g>
			</g>
			<g>
				<g>
					<g>
						<path class="st3" d="M1193.06,1529.89c-8.93,36.43,3.77,37.53,35.74,35.03c17.1-1.17,64.35-11.3,43.34-35.03
							c22.5,3.76,16.17,30.45,2.54,40.66c-21.82,18.15-61.52,23.91-85.66,9.55C1169.54,1567.77,1177.68,1541.5,1193.06,1529.89
							L1193.06,1529.89z"/>
					</g>
				</g>
			</g>
			<g>
				<g>
					<g>
						<path class="st3" d="M1271.69,1338.68c-8.93,36.43,3.77,37.54,35.74,35.03c17.1-1.17,64.35-11.3,43.34-35.03
							c22.5,3.77,16.17,30.45,2.54,40.66c-21.82,18.15-61.51,23.91-85.66,9.55C1248.17,1376.55,1256.31,1350.3,1271.69,1338.68
							L1271.69,1338.68z"/>
					</g>
				</g>
			</g>
			<g>
				<g>
					<g>
						<path class="st3" d="M1776.53,1217.16c-4.52,29.63-2.77,38.93,31.56,35.06c17.41-1.32,56.75-12.08,39.49-35.06
							c19.97,3.58,15.9,29.26,4.09,39.61c-18.97,19.87-69.46,28.35-86.6,3.09C1756.26,1245.52,1765.1,1226.89,1776.53,1217.16
							L1776.53,1217.16z"/>
					</g>
				</g>
			</g>
			<g>
				<g>
					<g>
						<path class="st3" d="M2768.49,1773.7c-11.04,27.86-11.42,37.33,22.9,41.24c17.27,2.61,58.01,0.95,46.34-25.32
							c18.66,7.97,8.94,32.07-4.89,39.52c-22.94,15.12-74.04,12.06-85.09-16.4C2742.39,1796.8,2755.17,1780.63,2768.49,1773.7
							L2768.49,1773.7z"/>
					</g>
				</g>
			</g>
			<g>
				<g>
					<g>
						<path class="st3" d="M2595.76,1338.61c-11.04,27.87-11.42,37.32,22.91,41.24c17.26,2.61,58.01,0.95,46.34-25.32
							c18.66,7.97,8.94,32.07-4.89,39.52c-22.94,15.12-74.05,12.06-85.09-16.4C2569.66,1361.71,2582.45,1345.54,2595.76,1338.61
							L2595.76,1338.61z"/>
					</g>
				</g>
			</g>
			<g>
				<g>
					<g>
						<path class="st3" d="M1464.32,1729.47c5.62,37.09,17.78,33.27,46.39,18.78c15.36-7.6,55.2-34.96,26.73-48.89
							c22.24-5.1,26.55,22,17.84,36.63c-13.26,25.09-47.77,45.54-75.56,41.45C1457,1773.46,1454.53,1746.07,1464.32,1729.47
							L1464.32,1729.47z"/>
					</g>
				</g>
			</g>
			<g>
				<g>
					<g>
						<path class="st3" d="M1659.91,1365.25c-2.56,33.23-47.28,48.06-74.41,30.32c-24.8-14.49-24.38-47.43-2.08-63.67
							C1612.16,1308.69,1660.49,1327.49,1659.91,1365.25L1659.91,1365.25z M1657.65,1365.25c-1.16-30.86-69.61-26.29-72.89,0
							C1585.52,1399.76,1657.38,1402.26,1657.65,1365.25L1657.65,1365.25z"/>
					</g>
				</g>
			</g>
			<g>
				<g>
					<g>
						<g>
							<path class="st3" d="M2158.5,1240.63c-2.56,33.23-47.28,48.06-74.41,30.32c-24.8-14.49-24.37-47.43-2.08-63.67
								C2110.74,1184.07,2159.07,1202.87,2158.5,1240.63L2158.5,1240.63z M2156.23,1240.63c-1.16-30.86-69.61-26.29-72.89,0
								C2084.1,1275.14,2155.96,1277.64,2156.23,1240.63L2156.23,1240.63z"/>
						</g>
					</g>
				</g>
			</g>
			<g>
				<g>
					<g>
						<path class="st3" d="M1877.04,1566.41c-1.61,13.75-15.92,19.76-26.88,24.91c-27.18,13.53-104.01,14.87-109.21-24.91
							c2.33-31.13,47.09-40.36,72.02-39.16C1833.85,1528.03,1874.67,1542.41,1877.04,1566.41L1877.04,1566.41z M1874.77,1566.41
							c-4.15-27.37-75.44-15.68-94.9-11.94c-9.8,2.3-30.11,9.6-15.35,20.06C1783.44,1591.06,1869.88,1599.8,1874.77,1566.41
							L1874.77,1566.41z"/>
					</g>
				</g>
			</g>
			<g>
				<g>
					<g>
						<path class="st3" d="M2775.02,1556.2c-6.7,42.18-110,46.72-114.24,0c1.75-29.49,36.81-40.3,61.09-39.16
							C2743.06,1518.41,2773.14,1532.51,2775.02,1556.2L2775.02,1556.2z M2772.75,1556.2c-4.59-21.75-34.52-16.87-50.88-16.48
							c-13.28,1.31-27.4,2.71-38.17,9.95c-3.04,2.25-4.31,4.51-4.77,6.53C2682.72,1583.72,2771.94,1589.06,2772.75,1556.2
							L2772.75,1556.2z"/>
					</g>
				</g>
			</g>
			<g>
				<g>
					<g>
						<path class="st3" d="M2142.48,1530.74c20.96,4.2,45.77,4.56,61.88,20.79c15.49,19.75-13.64,33.65-29.84,35.82
							c-29.67,5.91-109.69,3.5-109.27-39.08C2073.81,1515.36,2118.87,1528.38,2142.48,1530.74L2142.48,1530.74z M2142.24,1532.99
							c-17.22-1.18-35.73,3.47-49.77,12.69c-1.88,1.35-3.73,2.85-4.41,4.04c-0.85,1.2-0.55,1.66-0.26,0.95
							c21.01,17.7,55.88,24.67,84.48,22.11c32.8-3.81,32.13-16,4.54-30.62C2166.16,1536.82,2154.22,1533.85,2142.24,1532.99
							L2142.24,1532.99z"/>
					</g>
				</g>
			</g>
			<g>
				<g>
					<g>
						<path class="st3" d="M2339.85,1330.06c12.27,2.44,26.03,5.2,34.78,15.52c11.5,13.26,1.11,32.3-13.23,38.19
							c-26.05,12.42-74.97,2.97-72.36-33.37C2293.19,1326.06,2322,1326.36,2339.85,1330.06L2339.85,1330.06z M2339.61,1332.32
							c-12.16-0.79-28.25,7.84-28.02,20.49c2.78,9.9,13.54,15.82,23.92,18.03c11.25,2.11,29.24,0.04,32.82-12
							C2371.19,1345.24,2353.19,1332.1,2339.61,1332.32L2339.61,1332.32z"/>
					</g>
				</g>
			</g>
			<g>
				<g>
					<g>
						<path class="st3" d="M2453.3,1693.9c36.04,5.02,52.28,46.83,23.97,72.62c-29.71,27.23-83.02,1.5-76.1-39.79
							C2404.49,1701.91,2431.92,1689.78,2453.3,1693.9L2453.3,1693.9z M2453.06,1696.16c-35.37-1.5-40.01,57.19-6.75,63.5
							C2487.1,1765.77,2495.08,1700.3,2453.06,1696.16L2453.06,1696.16z"/>
					</g>
				</g>
			</g>
			<g>
				<g>
					<g>
						<path class="st3" d="M1778.81,1827.65c45.03,11.01,38.22,95.12-10.11,95.07c-26.24-2.26-39.58-32.84-35.18-55.81
							C1736.59,1845.92,1757.23,1824.95,1778.81,1827.65L1778.81,1827.65z M1778.57,1829.91c-19.76-0.04-22.34,24.84-22.5,39.41
							c0.03,12.42,1.68,31.58,14.54,35.37C1801.11,1906.52,1812.56,1833.84,1778.57,1829.91L1778.57,1829.91z"/>
					</g>
				</g>
			</g>
			<g>
				<g>
					<g>
						<path class="st3" d="M2187.48,1827.65c45.03,11.01,38.22,95.12-10.11,95.07c-26.24-2.25-39.57-32.85-35.17-55.81
							C2145.25,1845.92,2165.9,1824.95,2187.48,1827.65L2187.48,1827.65z M2187.24,1829.91c-19.76-0.04-22.35,24.84-22.5,39.41
							c0.03,12.41,1.68,31.58,14.54,35.37C2209.78,1906.52,2221.23,1833.84,2187.24,1829.91L2187.24,1829.91z"/>
					</g>
				</g>
			</g>
		</g>
	</g>
</g>
<g>
</g>
<g>
</g>
<g>
</g>
<g>
</g>
<g>
</g>
<g>
</g>
</svg>
