<svg version="1.1" id="Layer_1" xmlns="http://www.w3.org/2000/svg" xmlns:xlink="http://www.w3.org/1999/xlink" x="0px" y="0px" viewBox="0 0 1200 1200" enable-background="new 0 0 1200 1200" xml:space="preserve">
<pattern y="1200" width="59" height="59" patternUnits="userSpaceOnUse" id="New_Pattern_Swatch_4" viewBox="0 -59 59 59" overflow="visible">
	<g>
		<rect y="-59" fill="none" width="59" height="59"/>
		<g>
			<rect y="-59" fill="#08376A" width="59" height="59" style="fill: rgb(255, 244, 228);"/>
		</g>
	</g>
</pattern>
<g>
	<path fill="#B8965D" d="M1134.106,602.49l-20.128-28.647l17.287-30.446c13.915-24.507,8.487-55.441-12.941-73.746l-26.62-22.742&#10;&#9;&#9;l9.172-33.788c7.383-27.198-5.567-55.809-30.874-68.211l-31.439-15.407l0.481-35.008c0.387-28.179-19.271-52.672-46.867-58.39&#10;&#9;&#9;l-34.283-7.104l-8.24-34.028c-6.633-27.39-31.765-46.224-59.916-44.9l-34.973,1.645l-16.443-30.91&#10;&#9;&#9;c-13.236-24.88-42.263-36.872-69.199-28.589l-33.465,10.291l-23.614-25.849c-19.008-20.807-50.105-25.204-74.135-10.482&#10;&#9;&#9;l-29.854,18.29l-29.3-19.165c-23.585-15.426-54.798-11.951-74.413,8.284l-24.368,25.139l-33.146-11.276&#10;&#9;&#9;c-26.68-9.076-56.049,2.052-70.015,26.53l-17.351,30.41l-34.909-2.679c-28.099-2.156-53.778,15.926-61.217,43.108l-9.243,33.769&#10;&#9;&#9;l-34.478,6.087c-27.753,4.9-48.127,28.8-48.574,56.978l-0.554,35.007l-31.881,14.47c-25.662,11.648-39.453,39.864-32.878,67.268&#10;&#9;&#9;l8.169,34.045l-27.281,21.944c-21.959,17.664-28.3,48.423-15.116,73.331l16.379,30.944l-20.967,28.039&#10;&#9;&#9;c-16.877,22.57-15.368,53.94,3.596,74.786l23.56,25.898l-13.335,32.373c-10.734,26.058-1.471,56.067,22.081,71.542l29.26,19.226&#10;&#9;&#9;l-4.865,34.672c-3.916,27.909,12.518,54.671,39.179,63.803l33.122,11.345l3.91,34.792c3.147,28.005,25.721,49.841,53.816,52.055&#10;&#9;&#9;l34.903,2.751l12.44,32.727c10.013,26.343,37.308,41.878,65.071,37.036l34.491-6.015l20.188,28.605&#10;&#9;&#9;c16.25,23.025,46.551,31.285,72.237,19.691l31.911-14.404l26.667,22.686c21.466,18.261,52.868,18.725,74.864,1.107l27.327-21.887&#10;&#9;&#9;l31.471,15.341c25.332,12.349,55.864,4.989,72.788-17.545l21.025-27.995l34.298,7.032c27.607,5.661,55.349-9.06,66.137-35.096&#10;&#9;&#9;l13.402-32.345l34.969-1.718c28.148-1.383,51.357-22.541,55.332-50.441l4.937-34.661l33.443-10.36&#10;&#9;&#9;c26.92-8.339,44.138-34.605,41.049-62.617l-3.838-34.8l29.816-18.352c24-14.772,34.146-44.494,24.187-70.858l-12.371-32.753&#10;&#9;&#9;l24.316-25.19C1147.872,656.861,1150.307,625.549,1134.106,602.49z M599.999,1035.275c-240.395,0-435.274-194.879-435.274-435.274&#10;&#9;&#9;c0-240.395,194.879-435.274,435.274-435.274s435.274,194.879,435.274,435.274C1035.273,840.396,840.394,1035.275,599.999,1035.275z&#10;&#9;&#9;" style="fill: rgb(255, 244, 228);"/>
	
		<pattern id="SVGID_1_" xlink:href="#New_Pattern_Swatch_4" patternTransform="matrix(-3.3101 0 0 3.3101 -32794.8008 19967.8633)">
	</pattern>
	<path fill="url(#SVGID_1_)" d="M593.256,1149.494c-14.794,0-29.576-5.092-41.499-15.234l-24.145-20.541l-28.891,13.042&#10;&#9;&#9;c-27.921,12.599-61.001,3.584-78.663-21.442l-18.281-25.899l-31.226,5.446c-30.186,5.264-59.976-11.701-70.86-40.33l-11.264-29.632&#10;&#9;&#9;l-31.601-2.492c-30.533-2.406-55.179-26.246-58.602-56.685l-3.54-31.5l-29.989-10.273c-28.978-9.924-46.919-39.145-42.664-69.478&#10;&#9;&#9;l4.406-31.392l-26.495-17.407c-25.599-16.82-35.711-49.584-24.046-77.907l12.074-29.31l-21.331-23.448&#10;&#9;&#9;c-20.61-22.659-22.258-56.909-3.913-81.44l18.981-25.387l-14.827-28.016c-14.332-27.072-7.407-60.656,16.46-79.853l24.7-19.868&#10;&#9;&#9;l-7.395-30.823c-7.147-29.786,7.911-60.594,35.803-73.253l28.863-13.101l0.501-31.696c0.485-30.627,22.733-56.721,52.896-62.047&#10;&#9;&#9;l31.215-5.512l8.37-30.573c8.084-29.544,36.076-49.297,66.663-46.943l31.606,2.425l15.709-27.534&#10;&#9;&#9;c15.177-26.604,47.236-38.756,76.244-28.89l30.007,10.209l22.064-22.762c21.32-21.995,55.397-25.788,81.034-9.02l26.528,17.352&#10;&#9;&#9;l27.029-16.56c26.117-16.001,60.071-11.203,80.73,11.415l21.379,23.403l30.301-9.317c29.284-9,60.97,4.092,75.355,31.131&#10;&#9;&#9;l14.886,27.986l31.665-1.488c30.528-1.456,58.038,19.121,65.246,48.893l7.461,30.808l31.042,6.432&#10;&#9;&#9;c29.992,6.217,51.455,32.957,51.034,63.584l-0.434,31.697l28.462,13.949c27.507,13.479,41.647,44.717,33.624,74.279l-8.306,30.592&#10;&#9;&#9;l24.099,20.591c23.29,19.895,29.215,53.667,14.094,80.304l-15.652,27.565l18.225,25.937c17.609,25.064,14.95,59.251-6.322,81.289&#10;&#9;&#9;l-22.018,22.807l11.203,29.655c10.822,28.652-0.253,61.103-26.339,77.16l-26.996,16.617l3.476,31.508&#10;&#9;&#9;c3.356,30.445-15.443,59.122-44.702,68.187l-30.281,9.379l-4.47,31.384c-4.322,30.324-29.66,53.425-60.255,54.927l-31.66,1.556&#10;&#9;&#9;l-12.135,29.286c-11.729,28.297-42.01,44.365-72.02,38.218l-31.055-6.369l-19.034,25.348&#10;&#9;&#9;c-18.396,24.491-51.729,32.526-79.263,19.106l-28.495-13.89l-24.743,19.817C621.59,1144.83,607.417,1149.494,593.256,1149.494z&#10;&#9;&#9; M528.478,1102.358c1.218,0,2.424,0.427,3.39,1.246l26.669,22.687c19.517,16.604,48.199,17.032,68.204,1.009l27.328-21.887&#10;&#9;&#9;c1.576-1.264,3.747-1.504,5.561-0.619l31.471,15.341c23.044,11.231,50.927,4.504,66.313-15.984l21.024-27.996&#10;&#9;&#9;c1.216-1.614,3.246-2.389,5.234-1.983l34.298,7.033c25.124,5.16,50.444-8.299,60.255-31.973l13.402-32.346&#10;&#9;&#9;c0.774-1.868,2.557-3.123,4.577-3.222l34.97-1.718c25.594-1.257,46.794-20.582,50.406-45.953l4.937-34.662&#10;&#9;&#9;c0.286-2.001,1.701-3.66,3.632-4.259l33.445-10.36c24.477-7.582,40.206-31.574,37.397-57.045l-3.839-34.8&#10;&#9;&#9;c-0.22-2.01,0.736-3.968,2.457-5.028l29.816-18.352c21.826-13.434,31.093-40.583,22.038-64.554l-12.373-32.754&#10;&#9;&#9;c-0.715-1.891-0.273-4.025,1.131-5.481l24.314-25.19c17.798-18.437,20.023-47.038,5.29-68.007l-20.127-28.647&#10;&#9;&#9;c-1.162-1.655-1.267-3.831-0.268-5.59l17.287-30.445c12.651-22.286,7.693-50.541-11.79-67.186l-26.618-22.742&#10;&#9;&#9;c-1.538-1.313-2.181-3.396-1.65-5.347l9.172-33.789c6.71-24.732-5.119-50.867-28.13-62.144l-31.438-15.406&#10;&#9;&#9;c-1.816-0.89-2.958-2.747-2.93-4.769l0.48-35.009c0.352-25.623-17.604-47.996-42.697-53.196l-34.283-7.103&#10;&#9;&#9;c-1.98-0.41-3.545-1.926-4.02-3.891l-8.24-34.028c-6.036-24.906-28.929-42.098-54.589-40.906l-34.973,1.645&#10;&#9;&#9;c-2.033,0.087-3.913-0.983-4.863-2.769l-16.442-30.909c-12.036-22.622-38.544-33.581-63.044-26.046l-33.466,10.29&#10;&#9;&#9;c-1.928,0.595-4.036,0.023-5.4-1.471l-23.614-25.849c-17.282-18.922-45.688-22.94-67.539-9.549l-29.854,18.29&#10;&#9;&#9;c-1.729,1.056-3.905,1.023-5.596-0.083l-29.3-19.165c-21.448-14.029-49.961-10.853-67.792,7.547l-24.37,25.14&#10;&#9;&#9;c-1.41,1.453-3.53,1.963-5.443,1.312l-33.144-11.276c-24.265-8.26-51.088,1.912-63.785,24.17l-17.351,30.41&#10;&#9;&#9;c-1.001,1.756-2.894,2.794-4.945,2.623l-34.909-2.678c-25.514-1.974-49.003,14.557-55.772,39.273l-9.244,33.768&#10;&#9;&#9;c-0.534,1.951-2.143,3.419-4.135,3.771l-34.477,6.088c-25.236,4.455-43.846,26.286-44.252,51.909l-0.554,35.007&#10;&#9;&#9;c-0.033,2.022-1.229,3.844-3.07,4.681l-31.88,14.47c-23.333,10.591-35.931,36.365-29.954,61.284l8.171,34.044&#10;&#9;&#9;c0.47,1.967-0.232,4.029-1.808,5.298l-27.279,21.944c-19.972,16.061-25.762,44.158-13.773,66.808l16.378,30.943&#10;&#9;&#9;c0.945,1.787,0.776,3.96-0.434,5.58l-20.965,28.039c-15.346,20.522-13.969,49.177,3.275,68.135l23.56,25.898&#10;&#9;&#9;c1.361,1.496,1.737,3.642,0.968,5.512l-13.336,32.373c-9.76,23.694-1.3,51.107,20.117,65.179l29.261,19.226&#10;&#9;&#9;c1.688,1.11,2.587,3.096,2.306,5.098l-4.866,34.671c-3.561,25.378,11.451,49.823,35.696,58.127l33.121,11.346&#10;&#9;&#9;c1.913,0.655,3.277,2.355,3.502,4.364l3.911,34.791c2.863,25.467,23.484,45.412,49.029,47.426l34.904,2.751&#10;&#9;&#9;c2.015,0.158,3.76,1.465,4.478,3.356l12.439,32.728c9.108,23.95,34.038,38.145,59.284,33.742l34.49-6.015&#10;&#9;&#9;c1.992-0.347,4.005,0.483,5.172,2.137l20.189,28.605c14.776,20.936,42.449,28.48,65.81,17.94l31.91-14.405&#10;&#9;&#9;C527.014,1102.51,527.747,1102.358,528.478,1102.358z M599.999,1040.505c-242.896,0-440.506-197.609-440.506-440.504&#10;&#9;&#9;s197.609-440.504,440.506-440.504s440.506,197.609,440.506,440.504S842.896,1040.505,599.999,1040.505z M599.999,169.958&#10;&#9;&#9;c-237.126,0-430.044,192.916-430.044,430.042s192.917,430.042,430.044,430.042s430.044-192.916,430.044-430.042&#10;&#9;&#9;S837.126,169.958,599.999,169.958z"/>
</g>
</svg>